<svg width="153" height="148" viewBox="0 0 153 148" fill="none" xmlns="http://www.w3.org/2000/svg">
<path fill-rule="evenodd" clip-rule="evenodd" d="M69.3363 125.578L66.6443 126.563C66.5903 126.564 66.5093 126.653 66.4773 126.583L66.3653 126.424L66.1413 126.106L65.6953 125.471L64.8603 124.24L63.0233 121.49C61.7863 119.666 60.6073 117.801 59.4033 115.954C58.1913 114.113 57.0353 112.235 55.8633 110.368C54.6803 108.508 53.5463 106.615 52.4103 104.725C50.7223 101.986 49.0913 99.2094 47.4823 96.4264C41.9633 86.5154 36.9643 76.2974 32.8673 65.7114C31.1223 60.9884 29.3783 56.2264 28.0623 51.3954C27.1293 48.3184 26.4343 45.1634 25.7693 42.0084L25.0253 37.2244C24.8243 35.6234 24.7543 34.0064 24.6403 32.4024C24.5193 30.3964 25.0133 30.6494 25.6503 32.2834C25.9683 33.0994 26.3233 34.2594 26.6503 35.6584C26.9663 37.0594 27.4483 38.6804 27.7403 40.4704C28.9513 46.7904 30.6703 53.0174 32.7753 59.1404C34.9333 65.2464 37.4033 71.2644 40.0803 77.2354C43.3293 84.3614 47.3623 91.4684 51.4493 98.3664C55.9403 105.955 60.7143 113.39 65.6893 120.689L66.8393 122.372L67.2493 122.98C67.3423 123.097 67.4133 123.287 67.5293 123.338L68.7703 122.884C69.4223 122.647 70.0883 122.453 70.7473 122.236C73.3963 121.421 76.0903 120.789 78.7983 120.291C87.0213 118.814 95.3713 118.561 103.541 118.163C109.883 117.837 116.136 117.402 122.116 116.083C122.774 115.939 123.405 115.747 124.046 115.581C124.668 115.372 125.304 115.193 125.923 114.966C127.081 114.569 128.006 114.184 128.756 113.827C129.122 113.635 129.476 113.496 129.784 113.348C130.078 113.183 130.348 113.041 130.6 112.916C131.57 112.384 132.198 112.103 132.784 111.903C133.057 111.817 133.387 111.658 133.597 111.631C133.952 111.586 133.87 112.02 133.369 112.931C132.836 113.788 131.774 115.096 130.019 116.183C127.421 117.813 124.491 118.664 121.586 119.315C118.665 119.95 115.705 120.279 112.748 120.534C106.829 121.018 100.888 121.135 94.9883 121.469C86.2503 121.955 77.4663 122.796 69.3693 125.639L69.3363 125.578Z" fill="#F9F9F7"/>
<path fill-rule="evenodd" clip-rule="evenodd" d="M110.645 62.6771C112.058 66.7431 113.662 70.7511 115.388 74.7071C116.006 76.1571 116.768 77.5391 117.411 78.9761C119.743 84.0141 122.238 88.9961 125.088 93.7691L126.036 95.3611L127.046 96.9111C127.73 97.9361 128.366 98.9961 129.098 99.9721C130.03 101.23 130.918 102.535 131.916 103.736C132.407 104.344 132.876 104.971 133.331 105.61C133.825 106.207 134.311 106.814 134.79 107.433C135.381 108.207 135.054 108.375 134.194 108.044C133.362 107.7 131.822 106.935 130.622 105.515C129.519 104.28 128.53 102.975 127.545 101.664C126.527 100.372 125.651 98.9971 124.723 97.6461C122.978 94.8801 121.348 92.0401 119.879 89.1051C118.97 87.3641 118.045 85.5941 117.115 83.8131C116.147 82.0501 115.263 80.2321 114.394 78.4261C112.502 74.4461 110.82 70.3671 109.245 66.2531C108.729 64.9991 108.322 63.7021 107.867 62.4251C107.434 61.1391 106.946 59.8751 106.552 58.5771C105.966 56.6071 105.323 54.6521 104.792 52.6661C104.31 50.6661 103.726 48.6981 103.287 46.7041C102.958 45.1511 102.59 43.6201 102.228 42.0891C101.94 40.5441 101.691 38.9911 101.433 37.4311C101.374 37.0871 101.316 36.7471 101.257 36.4061C101.214 36.0641 101.194 35.7171 101.17 35.3651C101.009 32.7551 101.192 31.9131 101.793 31.3571C101.933 31.2301 102.068 31.0641 102.208 30.9911C102.678 30.7491 103.145 31.7841 103.426 33.6081C104.163 39.0201 105.323 44.6501 106.832 50.2561C107.333 52.3491 107.992 54.4111 108.626 56.4831C109.215 58.5681 109.995 60.5991 110.704 62.6501L110.645 62.6771Z" fill="#F9F9F7"/>
<path fill-rule="evenodd" clip-rule="evenodd" d="M115.456 123.41C112.283 123.52 101.163 123.623 92.747 125.21C81.894 127.256 70.346 129.153 65.805 130.932C44.008 103.894 27.249 75.706 23 46.97L26.459 41.297C26.459 41.297 39.91 88.557 53.796 105.991L66.858 125.53C66.858 125.53 77.754 120.128 121.704 118.755C121.704 118.755 117.675 123.333 115.456 123.41Z" fill="#F9F9F7"/>
<path fill-rule="evenodd" clip-rule="evenodd" d="M83.495 31.0618C81.185 31.2208 78.879 31.2638 76.579 31.3058C75.74 31.3188 74.904 31.3768 74.066 31.3728C71.111 31.3278 68.164 31.1968 65.227 31.0308C63.924 30.9618 62.613 30.9478 61.319 30.9158C59.66 30.8378 57.984 30.9108 56.344 30.4878C55.833 30.3608 55.921 30.0328 56.378 29.6538C56.835 29.2738 57.663 28.7688 58.614 28.7818C61.992 28.6688 65.34 28.8908 68.732 29.1468C70.761 29.3168 72.871 29.1748 74.942 29.1218C77.221 29.0818 79.497 28.9788 81.771 28.8358C83.165 28.7148 84.568 28.6298 85.954 28.4398C88.061 28.2008 90.168 27.8768 92.211 27.3898C93.793 26.9878 95.301 26.4368 96.79 25.8508C97.118 25.7208 97.438 25.5898 97.771 25.4758C98.08 25.3688 98.341 25.2908 98.566 25.2418C98.793 25.2028 98.995 25.2158 99.163 25.2308C99.502 25.2668 99.741 25.3968 99.972 25.5938C100.077 25.6828 100.199 25.7568 100.273 25.8408C100.513 26.0958 100.157 26.6848 99.313 27.3208C96.687 28.8828 93.581 29.7058 90.48 30.2718C88.167 30.6618 85.831 30.9428 83.504 31.1208L83.495 31.0618Z" fill="#F9F9F7"/>
<path fill-rule="evenodd" clip-rule="evenodd" d="M40.8276 30.0862L37.3896 29.5852C36.9716 29.5282 36.5496 29.5292 36.1326 29.4712C34.6606 29.2632 33.1906 29.0432 31.7206 28.9132C31.0686 28.8522 30.4096 28.8612 29.7706 28.8802C28.9396 28.8752 28.1416 29.0272 27.3466 28.9112C27.0946 28.8752 27.0376 28.6102 27.1906 28.2442C27.2656 28.0622 27.3986 27.8432 27.5846 27.6402C27.7646 27.4632 27.9966 27.3342 28.2596 27.2792C30.0786 26.9382 31.8246 27.1262 33.5586 27.4182C34.5956 27.6072 35.6806 27.5882 36.7406 27.6882L40.2256 28.0672L42.3666 28.3082C43.4486 28.4172 44.5316 28.5572 45.6096 28.6032C46.4476 28.6322 47.2756 28.5622 48.1076 28.5362C48.2906 28.5302 48.4716 28.5022 48.6546 28.5252C48.9946 28.5462 49.2136 28.6252 49.3606 28.7782C49.5096 28.9112 49.5886 29.0852 49.6456 29.3062C49.6726 29.4062 49.7096 29.5012 49.7236 29.5872C49.7706 29.8552 49.4686 30.1892 48.9516 30.4072C47.4366 30.7772 45.8726 30.6762 44.3086 30.5352C43.1476 30.4292 41.9856 30.2682 40.8256 30.1352L40.8276 30.0862Z" fill="#F9F9F7"/>
<path fill-rule="evenodd" clip-rule="evenodd" d="M40.4594 24.681C40.3274 25.032 39.9904 25.147 39.4294 25.154C39.2524 25.156 38.8724 24.922 38.8834 24.786C38.9054 24.524 38.9324 24.25 39.0034 23.992C39.0354 23.919 39.3464 23.342 39.8384 22.748C40.3344 22.161 41.0264 21.591 41.4194 21.349C42.1614 20.855 43.0484 20.57 43.9364 20.475C45.7604 20.267 47.5214 20.756 49.0244 21.515C49.3604 21.693 49.6784 21.922 49.9724 22.164C50.9554 23.049 51.8334 24.001 52.5644 25.039C52.6834 25.213 52.8044 25.395 52.9624 25.535C53.1044 25.644 53.5974 26.455 53.9494 27.315C54.3064 28.173 54.5564 29.054 54.5824 29.261C54.7334 30.296 54.8594 31.291 54.9634 32.28C54.9774 32.42 55.0394 32.559 54.9764 32.705C54.8284 33.042 54.9294 33.324 54.9794 33.622C55.0494 34.034 55.1104 34.444 55.1374 34.861C55.1454 35.068 55.0704 35.294 55.0244 35.515C54.9824 35.717 54.6604 35.702 54.6094 35.647C54.4664 35.49 54.3614 35.677 54.2404 35.728C54.1994 35.745 54.1464 35.767 54.1094 35.768C53.9954 35.779 52.8724 33.529 52.8324 33.274C52.8234 33.244 52.5784 32.396 52.3214 31.506C52.0534 30.633 51.7344 29.763 51.6484 29.599C51.5644 29.423 51.5544 29.219 51.5184 29.025C51.5014 28.987 51.2444 28.355 50.9154 27.795C50.5974 27.225 50.2264 26.721 50.1954 26.687C49.9464 26.252 49.5834 25.935 49.3924 25.456C49.3514 25.363 49.2724 25.3 49.2014 25.234C48.5634 24.696 47.9374 24.155 47.1594 23.737C46.7684 23.536 46.3504 23.401 45.9394 23.298C45.8654 23.28 45.7974 23.234 45.7254 23.203C45.6344 23.162 45.5434 23.115 45.4474 23.108C44.4634 22.956 43.4394 22.973 42.5874 23.463C42.4964 23.529 42.1784 23.612 41.8784 23.776C41.5704 23.922 41.2764 24.13 41.1884 24.234C41.0944 24.346 40.5024 24.517 40.4594 24.681Z" fill="#F9F9F7"/>
<path fill-rule="evenodd" clip-rule="evenodd" d="M76.185 22.0477C76.075 22.3717 75.752 22.4627 75.205 22.4477C75.033 22.4437 74.651 22.2107 74.657 22.0827C74.668 21.8367 74.685 21.5787 74.746 21.3367C74.773 21.2687 75.055 20.7327 75.507 20.1787C75.962 19.6307 76.601 19.0957 76.965 18.8677C77.651 18.4017 78.477 18.1347 79.303 18.0457C81 17.8507 82.635 18.3007 84.027 19.0007C84.338 19.1657 84.633 19.3787 84.903 19.6057C85.807 20.4357 86.618 21.3167 87.296 22.2737C87.406 22.4347 87.517 22.6037 87.669 22.7287C87.804 22.8277 88.262 23.5757 88.586 24.3677C88.915 25.1587 89.144 25.9687 89.166 26.1587C89.293 27.1137 89.4 28.0267 89.485 28.9337C89.496 29.0627 89.556 29.1897 89.49 29.3237C89.337 29.6367 89.432 29.8937 89.476 30.1667C89.538 30.5427 89.591 30.9177 89.609 31.2997C89.613 31.4897 89.534 31.6987 89.483 31.9027C89.437 32.0887 89.117 32.0817 89.068 32.0327C88.929 31.8917 88.82 32.0657 88.699 32.1147C88.658 32.1317 88.604 32.1537 88.568 32.1547C88.456 32.1677 87.38 30.1187 87.345 29.8857C87.336 29.8587 87.109 29.0867 86.87 28.2737C86.621 27.4797 86.327 26.6907 86.247 26.5427C86.168 26.3837 86.164 26.1967 86.133 26.0197C86.119 25.9857 85.881 25.4137 85.58 24.9097C85.289 24.3967 84.951 23.9467 84.923 23.9167C84.701 23.5237 84.369 23.2457 84.212 22.8027C84.179 22.7167 84.107 22.6607 84.043 22.6027C83.468 22.1237 82.913 21.6317 82.214 21.2487C81.864 21.0657 81.488 20.9457 81.119 20.8527C81.053 20.8367 80.993 20.7917 80.928 20.7627C80.847 20.7247 80.766 20.6797 80.68 20.6727C79.799 20.5377 78.883 20.5407 78.125 20.9857C78.044 21.0457 77.758 21.1137 77.486 21.2557C77.207 21.3827 76.94 21.5657 76.86 21.6607C76.778 21.7617 76.22 21.8957 76.185 22.0477Z" fill="#F9F9F7"/>
<path fill-rule="evenodd" clip-rule="evenodd" d="M75.62 52.7796C72.569 52.9376 69.52 53.0026 66.474 53.0026C65.362 53.0106 64.252 53.0416 63.142 53.0276C59.227 52.9406 55.319 52.7416 51.419 52.4296C49.687 52.2876 47.949 52.1456 46.23 52.0046C44.036 51.7396 41.788 51.5406 39.68 50.7146C39.023 50.4656 39.165 50.3446 39.783 50.2666C40.393 50.2316 41.502 50.0156 42.738 50.1766C47.15 50.6026 51.605 50.9656 56.114 51.2616C58.811 51.4486 61.628 51.3756 64.391 51.3456C67.431 51.3156 70.472 51.2336 73.508 51.0726C75.377 50.9806 77.244 50.8386 79.104 50.6666C81.919 50.3866 84.749 50.0506 87.483 49.4526C89.605 48.9926 91.641 48.3126 93.551 47.4836C93.957 47.2796 94.367 47.0896 94.774 46.9006C96.281 46.1766 96.718 45.9826 97.264 45.9886C97.388 45.9916 97.533 45.9696 97.631 45.9876C97.798 46.0186 97.794 46.1946 97.634 46.5326C97.552 46.6966 97.438 46.9196 97.267 47.1436C97.088 47.3496 96.872 47.5936 96.603 47.8426C96.191 48.1756 95.757 48.4766 95.314 48.7736C94.864 49.0316 94.392 49.2856 93.917 49.4966C92.965 49.9316 91.982 50.2896 90.979 50.5846C88.975 51.1796 86.917 51.5646 84.856 51.8896C81.791 52.3606 78.704 52.6256 75.627 52.8246L75.62 52.7796Z" fill="#F9F9F7"/>
<path fill-rule="evenodd" clip-rule="evenodd" d="M69.7582 81.1673C70.2912 82.2113 70.8462 83.2483 71.4062 84.2813C72.0082 85.2923 72.5732 86.3273 73.2122 87.3173L74.6462 89.4613C76.3292 91.9843 78.0732 94.4833 79.9892 96.8533C80.8412 97.9023 81.7482 98.9163 82.6782 99.8813C83.8742 101.123 85.1332 102.301 86.2612 103.612C86.6112 104.023 86.3492 104.204 85.7982 104.122C85.2522 104.036 84.3832 103.711 83.6352 103.03C81.0242 100.579 78.6412 97.8953 76.5292 94.9733C75.2792 93.2183 73.8602 91.4833 72.6402 89.6463C71.9732 88.6343 71.2992 87.6283 70.6902 86.5803L69.7542 85.0223L68.8792 83.4293C68.1342 82.1373 67.5202 80.7723 66.8392 79.4493C66.3832 78.4153 65.9122 77.3853 65.4752 76.3433C65.0812 75.2843 64.6292 74.2493 64.2582 73.1893C63.9752 72.3643 63.6672 71.5563 63.3522 70.7493C63.0902 69.9253 62.8112 69.1053 62.5682 68.2713C62.4492 67.9063 62.3482 67.5453 62.2792 67.1643C62.0492 65.7463 62.1982 65.2593 62.5082 64.9053C62.5832 64.8243 62.6522 64.7223 62.7282 64.6703C62.9792 64.4983 63.3402 65.0223 63.7562 65.9683C64.2502 67.3943 64.7712 68.8333 65.2292 70.3093C65.7712 71.7643 66.2802 73.2443 66.8862 74.7043C67.7312 76.8883 68.7312 79.0333 69.7982 81.1423L69.7582 81.1673Z" fill="#E14646"/>
<path fill-rule="evenodd" clip-rule="evenodd" d="M89.7963 77.9544C90.3173 78.8724 90.8333 79.7954 91.4033 80.6894C91.9493 81.5974 92.5263 82.4884 93.1243 83.3674C93.5483 84.0164 94.0343 84.6214 94.4833 85.2534C96.0463 87.4964 97.6463 89.7314 99.3673 91.8734C100.121 92.8314 100.942 93.7434 101.752 94.6424C102.811 95.7824 103.905 96.8954 104.838 98.1514C105.129 98.5434 104.858 98.7104 104.342 98.6294C103.829 98.5464 103.053 98.2304 102.404 97.6004C100.157 95.3214 98.0423 92.9064 96.1353 90.2894C94.9923 88.7304 93.6893 87.1954 92.5323 85.5874C91.2683 83.8154 90.0643 81.9964 88.9353 80.1314C88.2423 78.9814 87.5713 77.8194 86.9423 76.6334C85.9643 74.8504 85.1243 72.9834 84.3063 71.1334C83.7123 69.6774 83.0353 68.2754 82.5643 66.7704C82.4593 66.4404 82.3153 66.1294 82.2513 65.7824C82.0153 64.5004 82.1623 64.0514 82.4703 63.7214C82.5453 63.6454 82.6133 63.5514 82.6893 63.5024C82.9393 63.3384 83.3003 63.7994 83.7163 64.6284C84.7563 67.1184 85.6763 69.7304 86.9073 72.2914C87.3583 73.2414 87.8203 74.1914 88.2963 75.1374C88.8133 76.0644 89.2733 77.0224 89.8353 77.9284L89.7963 77.9544Z" fill="#E14646"/>
<path fill-rule="evenodd" clip-rule="evenodd" d="M83.0238 75.5325C80.8068 75.7375 78.5888 75.8665 76.3718 75.9485C75.5638 75.9775 74.7568 76.0525 73.9488 76.0575C71.0968 76.0875 68.2478 75.9895 65.4078 75.8025C64.1468 75.7195 62.8828 75.6365 61.6318 75.5545C60.0268 75.4525 58.4118 75.3015 56.8428 74.9005C56.3528 74.7795 56.4588 74.5345 56.9148 74.3135C57.3708 74.0935 58.1728 73.8775 59.0868 73.8995C62.3148 74.0865 65.5328 74.1955 68.7978 74.4245C70.7528 74.5525 72.7888 74.4195 74.7858 74.3325C76.9838 74.2415 79.1818 74.1045 81.3738 73.8935C82.7208 73.7545 84.0698 73.6145 85.4078 73.4115C87.4358 73.1185 89.4738 72.7865 91.4308 72.2565C92.9488 71.8435 94.3928 71.2705 95.7498 70.6175C96.0368 70.4635 96.3198 70.3125 96.6078 70.1575C97.6588 69.5995 97.9228 69.4795 98.4148 69.5745C98.5288 69.5955 98.6608 69.5935 98.7638 69.6215C99.1228 69.6655 98.9908 70.4345 98.1568 71.1605C96.9618 72.2395 95.5328 72.7985 94.1138 73.3455C92.6778 73.8535 91.1988 74.2305 89.7118 74.5495C87.5028 75.0175 85.2668 75.3395 83.0328 75.5775L83.0238 75.5325Z" fill="#E14646"/>
<path fill-rule="evenodd" clip-rule="evenodd" d="M90.891 92.0965C88.96 92.2895 87.03 92.4255 85.101 92.5325C84.397 92.5735 83.697 92.6555 82.993 92.6765C80.51 92.7535 78.027 92.7385 75.547 92.6545C74.444 92.6195 73.341 92.5845 72.247 92.5495C70.843 92.5205 69.422 92.4135 68.046 92.0455C67.617 91.9315 67.719 91.6865 68.121 91.4585C68.522 91.2415 69.217 90.9915 70.004 90.9935C72.8 91.0545 75.603 91.0345 78.453 91.1655C80.16 91.2355 81.929 91.0545 83.667 90.9385C85.58 90.8145 87.495 90.6625 89.402 90.4545C90.576 90.3295 91.747 90.1815 92.912 90.0045C94.676 89.7355 96.45 89.4385 98.145 88.9595C99.455 88.5835 100.709 88.0555 101.814 87.4305C102.07 87.3025 102.249 87.1195 102.493 87.0005C102.876 86.7355 103.081 86.5835 103.23 86.5075C103.296 86.4695 103.382 86.4445 103.482 86.4205C103.561 86.3975 103.652 86.3725 103.761 86.3415C103.866 86.3105 103.974 86.2435 104.075 86.2045C104.243 86.1385 104.393 86.2085 104.479 86.5415C104.578 86.8675 104.419 87.3925 104.089 87.8215C103.596 88.4375 103.014 88.9005 102.413 89.2205C101.812 89.5715 101.196 89.8465 100.568 90.0935C99.31 90.5705 98.018 90.9105 96.72 91.2015C94.792 91.6265 92.844 91.9125 90.9 92.1405L90.891 92.0965Z" fill="#E14646"/>
<path fill-rule="evenodd" clip-rule="evenodd" d="M13.2355 35.1811C13.3399 34.9482 13.6283 35.0569 14.0551 35.3392C14.1914 35.4299 14.4643 35.8008 14.4472 35.8936C14.4127 36.0752 14.3731 36.2563 14.3073 36.4125C14.2814 36.5202 13.2434 37.4728 12.8652 37.7664C12.5142 38.0837 12.1129 38.284 11.7093 38.4924C10.8853 38.8766 10.0618 39.2557 9.22966 39.5694C9.04318 39.6416 8.85247 39.6882 8.64971 39.6997C7.96066 39.752 7.32306 39.9355 6.70054 40.1658C6.59643 40.2039 6.48345 40.2207 6.40462 40.3308C6.27012 40.5171 4.55944 41.0018 4.32541 40.9999C3.74104 41.0091 3.15054 40.9938 2.57245 41.0175C2.48932 41.0197 2.41414 41.0673 2.31768 40.9963C2.09266 40.8311 1.93493 40.9109 1.76169 40.9389C1.52097 40.9757 1.2824 41.0143 1.02902 41.0091C0.903361 41.0069 0.754241 40.9304 0.613332 40.8793C0.484808 40.8322 0.448939 40.5442 0.474396 40.5018C0.550286 40.3809 0.421023 40.2786 0.373286 40.1673C0.35707 40.1306 0.335752 40.0812 0.330925 40.0485C0.313695 39.9767 1.4952 38.9655 1.64645 38.9153C1.66279 38.9069 2.14756 38.6854 2.66036 38.4515C3.16291 38.2034 3.70656 38.013 3.81013 37.9569C3.91975 37.9013 4.05293 37.9209 4.17941 37.9211C4.2436 37.9205 5.75324 37.2926 5.81216 37.2774C6.14274 37.2118 6.4343 37.0311 6.8092 37.1303C6.88317 37.15 6.94379 37.1197 7.007 37.0961C7.53832 36.8907 8.10244 36.7979 8.65501 36.676C8.93985 36.6153 9.19719 36.4918 9.46724 36.3992C9.51502 36.3831 9.57518 36.3939 9.62798 36.3894C9.69573 36.3836 9.76633 36.3875 9.82747 36.3632C10.4444 36.1032 11.1127 35.9492 11.6628 35.5776C11.7917 35.5013 12.5394 35.3605 12.6691 35.2349C12.7453 35.1761 13.1961 35.2828 13.2355 35.1811Z" fill="#F9F9F7"/>
<path fill-rule="evenodd" clip-rule="evenodd" d="M12.5414 21.092C12.7708 21.0642 12.7181 21.3839 12.4884 21.9096C12.4165 22.0774 12.0888 22.5141 12.0056 22.5494C11.8427 22.6166 11.6846 22.6804 11.5496 22.7092C11.4676 22.7243 10.5903 22.4205 10.2769 22.3481C9.97621 22.2717 9.72093 22.1281 9.47333 21.9688C8.97016 21.6508 8.44622 21.3597 7.9255 21.0594C7.81037 20.993 7.71021 20.9023 7.61937 20.7917C7.3116 20.4117 6.91661 20.1727 6.49188 19.9845C6.42095 19.9535 6.36026 19.9015 6.25316 19.9399C6.08324 19.9947 4.97373 19.4078 4.88329 19.2319C4.62107 18.8681 4.32281 18.5636 4.03223 18.2434C3.99016 18.1978 3.92337 18.1915 3.92198 18.0822C3.91827 17.8296 3.79211 17.7983 3.6919 17.7187C3.55099 17.6094 3.4309 17.4621 3.31519 17.3075C3.25916 17.228 3.23973 17.0841 3.20642 16.9656C3.17605 16.8578 3.33747 16.6461 3.37637 16.6317C3.48638 16.5921 3.49112 16.4492 3.53758 16.3478C3.5526 16.3124 3.57281 16.2675 3.59167 16.2418C3.62055 16.2042 4.83424 16.0785 4.92528 16.1449C4.93766 16.1488 5.29999 16.2652 5.6861 16.3894C6.06986 16.5099 6.47663 16.6294 6.56529 16.6449C6.65875 16.6579 6.71157 16.7467 6.77207 16.8198C6.80081 16.8504 7.94385 17.2557 7.98363 17.2864C8.18767 17.4294 8.44956 17.4751 8.55997 17.7777C8.58223 17.838 8.63168 17.8528 8.67667 17.8741C9.06576 18.0563 9.39544 18.341 9.73644 18.6057C9.91064 18.7403 10.1131 18.8302 10.3007 18.9455C10.3336 18.9658 10.3507 19.0135 10.3776 19.0463C10.4102 19.0866 10.4378 19.1385 10.481 19.1628C10.9364 19.4156 11.3131 19.7917 11.8018 19.9995C11.9171 20.0447 12.248 20.5763 12.3807 20.6261C12.4575 20.6546 12.45 21.1029 12.5414 21.092Z" fill="#F9F9F7"/>
<path fill-rule="evenodd" clip-rule="evenodd" d="M26.8239 11.6877C27.0162 11.7765 26.8253 12.0067 26.4031 12.3131C26.269 12.411 25.8124 12.5989 25.7301 12.5869C25.5705 12.5636 25.4148 12.5388 25.2939 12.4981C25.2233 12.471 24.6493 11.8209 24.4238 11.6145C24.2107 11.4131 24.0667 11.1756 23.9362 10.9309L23.0957 9.43557C23.0337 9.32247 22.9959 9.19826 22.9802 9.06211C22.9269 8.59496 22.7338 8.19507 22.4929 7.81034C22.4521 7.7456 22.4326 7.67 22.3216 7.64042C22.1084 7.61163 21.6562 6.44215 21.6793 6.25548C21.7012 5.81095 21.6691 5.39216 21.6714 4.96439C21.6703 4.90526 21.6248 4.85498 21.7021 4.77404C21.8837 4.58675 21.8076 4.48391 21.8065 4.35453C21.7944 4.17991 21.8048 3.99735 21.8421 3.81247C21.8601 3.71957 21.956 3.60893 22.0245 3.50766C22.0879 3.41588 22.3743 3.38517 22.4128 3.40092C22.5213 3.44878 22.6389 3.35734 22.7532 3.32039C22.7923 3.30898 22.8421 3.29265 22.8758 3.28773C22.9115 3.28265 23.1328 3.4633 23.3698 3.6386C23.6185 3.81087 23.8595 3.98682 23.8637 4.03564C23.8637 4.03564 24.0282 4.33762 24.2054 4.6345C24.3916 4.93161 24.5924 5.23448 24.6485 5.29187C24.7038 5.35134 24.6856 5.44225 24.6877 5.52537C24.7005 5.55739 25.3097 6.43028 25.3137 6.47611C25.3741 6.68771 25.5466 6.84948 25.4472 7.1401C25.428 7.19696 25.4572 7.23258 25.4786 7.27089C25.6689 7.60377 25.7581 7.98652 25.8776 8.36064C25.9381 8.55014 26.0501 8.71915 26.1329 8.8997C26.1477 8.93155 26.1356 8.97776 26.1389 9.01662C26.1432 9.06543 26.1377 9.1191 26.1593 9.1594C26.383 9.57772 26.4876 10.0575 26.7701 10.4577C26.8361 10.5484 26.8384 11.1344 26.9187 11.2389C26.9649 11.2971 26.7476 11.6521 26.8239 11.6877Z" fill="#F9F9F7"/>
</svg>
