<svg width="148" height="148" viewBox="0 0 148 148" fill="none" xmlns="http://www.w3.org/2000/svg">
<path fill-rule="evenodd" clip-rule="evenodd" d="M82.5199 57.4931L77.4999 58.3421L75.6769 58.6991C73.5259 59.0821 71.3719 59.4661 69.2229 59.8481C68.2699 60.0391 67.3159 60.2301 66.3709 60.4201C65.1519 60.6681 63.9669 60.9821 62.6619 61.0191C62.2459 61.0231 62.3249 60.7841 62.6269 60.5231C62.9159 60.2781 63.4529 59.9461 64.1419 59.8161C66.5949 59.3091 69.0679 58.7991 71.5879 58.4261C73.0949 58.1981 74.6359 57.8291 76.1659 57.5371L81.2249 56.6161L84.3449 56.0821C85.9239 55.8311 87.5099 55.5791 89.0779 55.3301C90.2989 55.1441 91.4839 54.8841 92.7079 54.7271L93.5109 54.6101C94.5309 54.5321 94.8649 54.6071 95.0829 54.9091C95.1329 54.9781 95.1979 55.0471 95.2259 55.1181C95.3199 55.3571 94.9169 55.5741 94.2079 55.6711C92.0099 56.0101 89.8179 56.3471 87.5849 56.6921C85.9029 56.9671 84.2129 57.2431 82.5269 57.5191L82.5199 57.4931Z" fill="#DFAC03"/>
<path fill-rule="evenodd" clip-rule="evenodd" d="M38.9301 75.9677C40.8681 76.9587 42.8201 77.9287 44.7841 78.8747L46.9511 79.8727C49.4811 81.0887 52.0131 82.3057 54.5411 83.5207C55.6651 84.0607 56.8071 84.5767 57.9331 85.0907C59.3791 85.7577 60.8601 86.3657 62.1841 87.3357C62.5991 87.6317 62.4231 87.7557 61.9491 87.7347C61.7101 87.7257 61.4041 87.6787 61.0511 87.6007C60.6891 87.5237 60.2701 87.4337 59.8671 87.2337C56.9501 85.9007 53.9381 84.6887 51.0261 83.1997C49.2771 82.3237 47.3871 81.5637 45.5661 80.7347C43.5641 79.8197 41.5731 78.8797 39.5871 77.9267L35.9321 76.1407C34.0891 75.2347 32.2641 74.2697 30.4451 73.3447C29.0371 72.6117 27.6131 71.9687 26.2201 71.2227C25.9121 71.0587 25.5961 70.9287 25.3051 70.7277C24.2041 70.0227 23.9321 69.6797 23.9161 69.2067C23.9121 69.0997 23.8911 68.9837 23.9081 68.8927C23.9611 68.5987 24.5591 68.6467 25.4071 69.0407C27.9181 70.2117 30.4531 71.6317 33.0841 72.9497C35.0231 73.9497 36.9731 74.9647 38.9441 75.9327L38.9301 75.9677Z" fill="#202020"/>
<path fill-rule="evenodd" clip-rule="evenodd" d="M61.9379 69.6894C61.8429 70.7064 61.7479 71.7254 61.6529 72.7404C61.6219 73.1114 61.6289 73.4834 61.5939 73.8544C61.4749 75.1614 61.3549 76.4744 61.2349 77.7784C61.1919 78.3584 61.1679 78.9434 61.1609 79.5204C61.1519 80.2604 61.1829 81.0074 61.0549 81.7384C60.9809 82.2004 60.0409 81.6104 60.0009 80.7424C59.9559 79.2174 59.9939 77.7024 60.2139 76.1794C60.3389 75.2694 60.3109 74.3154 60.3639 73.3814L60.5639 70.3014L60.6989 68.4064C60.7639 67.4504 60.8479 66.4904 60.8749 65.5384C60.8929 64.7984 60.8449 64.0704 60.8389 63.3364C60.8379 63.1744 60.8259 63.0154 60.8319 62.8524C60.8409 62.5514 60.8759 62.3464 60.9459 62.2104C60.9809 62.1424 61.0249 62.0894 61.0819 62.0474C61.1429 61.9464 61.2429 61.8624 61.3309 61.8604C61.4129 61.8514 61.4689 61.8744 61.4969 61.9254C61.5399 62.0154 61.4459 61.8044 61.4879 61.9004C61.5619 62.0664 61.5599 62.0554 61.5839 62.0904C61.6249 62.1494 61.7179 62.2004 61.8069 62.1624C61.8959 62.0704 61.9089 62.1634 61.9439 62.2524C61.9739 62.3374 61.9959 62.4344 62.0099 62.5434C62.1829 63.8464 62.1979 65.2294 62.1359 66.6074C62.0969 67.6324 62.0379 68.6624 61.9719 69.6894H61.9379Z" fill="#DFAC03"/>
<path fill-rule="evenodd" clip-rule="evenodd" d="M42.3651 63.3328C42.3291 64.2698 42.3081 65.2118 42.3011 66.1538C42.3091 66.4988 42.3181 66.8368 42.3261 67.1838C42.3081 68.3968 42.2891 69.6188 42.2711 70.8298C42.2661 71.3698 42.2851 71.9138 42.3081 72.4508C42.3271 73.1438 42.4071 73.8398 42.2211 74.5558C42.1661 74.7768 41.9261 74.7058 41.6971 74.5018C41.4731 74.2968 41.2521 73.9818 41.2411 73.5978C41.2191 72.2408 41.1551 70.8368 41.2351 69.4228C41.2881 68.5758 41.1991 67.6978 41.1851 66.8318C41.1721 65.8778 41.1761 64.9238 41.1831 63.9688C41.1931 63.3808 41.2031 62.7918 41.2131 62.2058C41.2421 61.3138 41.2711 60.4208 41.3011 59.5368C41.3141 58.8488 41.2651 58.1678 41.2991 57.4828C41.3021 57.3328 41.3031 57.1838 41.3201 57.0318C41.3831 56.4698 41.4801 56.2988 41.7621 56.2138C41.8261 56.1948 41.8911 56.1668 41.9531 56.1598C42.1631 56.1338 42.3131 56.3798 42.3491 56.7868C42.4741 57.9908 42.4651 59.2378 42.4441 60.5018C42.4271 61.4418 42.4111 62.3878 42.3951 63.3318L42.3651 63.3328Z" fill="#DFAC03"/>
<path fill-rule="evenodd" clip-rule="evenodd" d="M68.4599 30.5032C69.1579 30.2792 69.8589 30.1212 70.5619 29.9752C70.8179 29.9212 71.0609 29.8222 71.3199 29.7832C72.2319 29.6332 73.1609 29.5612 74.0749 29.4442C74.4829 29.4002 74.8829 29.3182 75.2829 29.2602C75.7979 29.1912 76.3179 29.1252 76.8529 29.1462C77.0189 29.1522 76.9899 29.1222 76.8639 29.1802C76.7349 29.2292 76.5309 29.4442 76.2669 29.6052C75.3419 30.2162 74.3829 30.6632 73.3439 30.8672C72.7189 30.9742 72.1159 31.2552 71.4939 31.4222C70.8119 31.6082 70.1159 31.7582 69.4299 31.9212C69.0069 32.0202 68.5849 32.1182 68.1809 32.2352C67.8689 32.3362 67.6119 32.3972 67.4699 32.5322C67.3039 32.6752 67.2009 32.9412 67.1469 33.2322C67.0709 33.6912 67.1229 34.1862 67.0819 34.6982C67.0739 34.8112 67.0659 34.9292 67.0589 35.0382C67.0129 35.4682 66.9089 35.6022 66.8959 35.6892C66.8899 35.7092 66.8859 35.7352 66.8849 35.7472C66.8859 35.7892 66.8929 35.6112 66.7739 35.3162C66.5309 34.4262 65.7769 33.6202 66.2029 32.1392C66.3049 31.8722 66.4699 31.5772 66.7219 31.3572C66.9519 31.1322 67.2209 31.0102 67.3829 30.9222C67.7579 30.7252 68.0959 30.5992 68.4459 30.4652L68.4599 30.5032Z" fill="#DFAC03"/>
<path fill-rule="evenodd" clip-rule="evenodd" d="M59.1498 43.7079C59.1738 43.8079 59.1378 43.7289 59.1128 43.7479C59.0828 43.7429 59.0698 43.7299 59.0258 43.7259C58.9318 43.7189 58.8548 43.6969 58.7418 43.6899C58.5278 43.6699 58.2878 43.6549 58.0418 43.6419C57.8568 43.6369 57.6878 43.6989 57.4948 43.6819C56.8228 43.6249 56.0998 43.4889 55.3878 43.4369C55.0698 43.4019 54.7608 43.4259 54.4478 43.4169C54.0468 43.3959 53.6278 43.3709 53.2138 43.1879C53.0878 43.1339 53.1088 43.1879 53.2068 43.1329C53.3078 43.0939 53.4578 42.8219 53.6438 42.6469C54.2948 41.9539 54.9838 41.5069 55.8058 41.4689C56.2978 41.4679 56.7658 41.2119 57.2748 41.1459C57.8398 41.0809 58.4118 41.0759 59.0868 41.1699C59.4678 41.2079 60.1918 41.4309 60.5218 41.8659C61.0538 42.5119 61.0528 43.1399 61.1448 43.6569C61.2018 44.0669 61.2718 44.4419 61.2198 44.8319C61.2128 44.9169 61.2098 44.9989 61.1958 45.0839C61.1518 45.4009 61.0658 45.5349 61.0778 45.6039C61.0768 45.6209 61.0818 45.6409 61.0848 45.6489C61.1098 45.6699 61.0238 45.5759 60.7938 45.3909C60.5188 45.0959 60.1978 44.7769 59.8978 44.4889C59.6458 44.1919 59.3758 43.9269 59.2038 43.7489C59.1328 43.6939 59.0678 43.6309 59.0118 43.6199C58.9828 43.6119 58.9588 43.5939 58.9468 43.6029L58.9288 43.6049C58.9178 43.6129 58.9278 43.6029 58.9618 43.5739C58.9878 43.5489 58.9958 43.5489 59.0138 43.5339C59.0708 43.4929 59.1408 43.4149 59.1758 43.3699C59.1988 43.3489 59.2208 43.3199 59.2398 43.2829C59.2338 43.2919 59.2308 43.3079 59.2308 43.3079V43.3089V43.3099C59.2078 43.3799 59.4338 42.6959 59.3378 42.9859L59.3368 42.9879L59.3358 42.9909L59.3328 42.9979L59.3218 43.0229L59.3028 43.0749L59.2338 43.2819C59.1938 43.4219 59.1658 43.5629 59.1498 43.7049V43.7079Z" fill="#DFAC03"/>
<path fill-rule="evenodd" clip-rule="evenodd" d="M28.2733 98.0698C31.2093 99.9208 34.1653 101.755 37.1403 103.556C38.2253 104.215 39.3503 104.805 40.4323 105.467L51.8763 112.495C53.5763 113.523 55.3153 114.503 57.0363 115.464C59.2533 116.686 61.4473 117.973 63.5383 119.421C64.1873 119.876 63.9483 120.078 63.2033 120.036C62.4613 119.988 61.1903 119.743 59.8683 119.118C57.5153 118.032 55.2513 116.788 52.9923 115.521C50.7333 114.256 48.4913 112.948 46.2753 111.57C43.6203 109.932 40.7493 108.415 37.9923 106.808C34.9633 105.038 31.9493 103.237 28.9443 101.417C27.0953 100.295 25.2503 99.1678 23.4153 98.0118C22.7183 97.5818 22.0283 97.1238 21.3373 96.6718C20.9923 96.4518 20.6483 96.2088 20.3043 95.9648C20.1083 95.8208 19.8233 95.6458 19.6173 95.4648L19.4493 95.3288C19.4223 95.2638 19.4073 95.1898 19.3863 95.1208C19.3423 94.9818 19.3073 94.8408 19.2863 94.6978C19.1553 94.0618 19.1443 93.7288 19.0953 93.2948L18.9923 92.0608C18.9313 91.2428 18.8703 90.4268 18.8103 89.6138C18.6213 87.0898 18.3183 84.6248 18.1813 82.1248C18.1463 81.5748 18.0963 81.0358 18.0793 80.4798C18.0403 79.4488 18.1213 78.7648 18.2503 78.2838C18.4233 77.8038 18.6213 77.5248 18.8593 77.3048C18.9683 77.2038 19.0683 77.0718 19.1623 77.0138C19.3213 76.9168 19.4653 77.0778 19.6513 77.4458C19.8303 77.8148 20.0983 78.3908 20.1943 79.1328C20.5323 81.3378 20.8063 83.6068 21.0263 85.9078C21.2233 88.2018 21.3693 90.5578 21.5903 92.8358L21.6973 93.8088C21.7103 93.8358 21.6663 93.7978 21.7293 93.8468C22.3823 94.3168 23.1483 94.7788 23.8583 95.2478L28.3023 98.0128L28.2733 98.0698Z" fill="#202020"/>
<path fill-rule="evenodd" clip-rule="evenodd" d="M64.3217 106.096L64.2907 109.581C64.2937 110.005 64.3557 110.426 64.3517 110.85C64.3317 112.348 64.3117 113.853 64.2917 115.349C64.2847 116.015 64.3247 116.683 64.3737 117.343C64.4277 118.196 64.5717 119.034 64.3527 119.938C64.2867 120.217 63.8957 120.14 63.5057 119.905C63.1207 119.671 62.7177 119.306 62.6657 118.829C62.5107 117.153 62.3367 115.432 62.4747 113.685C62.5557 112.638 62.3847 111.564 62.3437 110.499L62.2527 106.98L62.2107 104.812C62.1867 103.717 62.2237 102.614 62.1757 101.525C62.1347 100.679 61.9907 99.8476 61.9807 98.9926C61.9777 98.8036 61.9587 98.6186 61.9667 98.4276C62.0057 97.7156 62.1817 97.4756 62.6217 97.3866C62.7237 97.3646 62.8257 97.3326 62.9247 97.3266C63.2587 97.3086 63.5177 97.6176 63.6137 98.0856C63.7657 98.7996 63.9407 99.5406 64.0437 100.298C64.1337 101.054 64.1927 101.825 64.2497 102.603L64.3527 104.341L64.3737 106.092L64.3217 106.096Z" fill="#202020"/>
<path fill-rule="evenodd" clip-rule="evenodd" d="M127.01 106.252L112.044 110C110.223 110.451 108.421 110.973 106.597 111.402L87.2817 115.899C84.4297 116.587 81.5637 117.278 78.7337 117.96C75.0867 118.806 71.4687 119.816 67.6837 120.173C66.4737 120.235 66.6297 119.876 67.5307 119.338C68.4277 118.766 70.0897 117.973 72.1707 117.465C79.5377 115.61 86.9417 113.797 94.4487 112.137C98.9417 111.148 103.544 109.825 108.099 108.651L123.136 104.81C126.217 104.008 129.301 103.208 132.36 102.357L134.207 101.832L134.733 101.677C134.794 101.639 134.948 101.651 134.921 101.546L134.926 101.29C134.933 97.8354 134.94 94.3874 134.947 90.9684C134.932 87.2424 134.8 83.5854 134.829 79.8864C134.835 79.0714 134.83 78.2714 134.855 77.4494C135.007 74.3984 135.324 73.4174 136.02 72.8414C136.18 72.7104 136.344 72.5334 136.496 72.4664C137.021 72.2514 137.249 73.4934 137.267 75.6814C137.361 82.2004 137.383 89.1144 137.376 96.0654C137.371 98.0924 137.365 100.123 137.361 102.161L137.191 102.666L137.106 102.918L137.063 103.043L137.042 103.106C137.225 103.237 136.792 102.932 136.836 102.964L136.834 102.968L136.829 102.974L136.821 102.987L136.803 103.013L136.529 103.426C136.456 103.584 136.233 103.647 136.092 103.761C135.756 103.932 135.291 104.04 134.956 104.149L134.342 104.327L131.902 105.003L127.032 106.308L127.01 106.252Z" fill="#202020"/>
<path fill-rule="evenodd" clip-rule="evenodd" d="M107.094 77.8046L95.8196 80.2466L91.7246 81.2126L77.2446 84.4296C75.1056 84.9136 72.9646 85.4416 70.8576 85.9836C68.1376 86.6266 65.4276 87.3726 62.6716 87.8306C61.8186 87.9926 61.8926 87.8726 62.5486 87.4856C62.8756 87.2896 63.3516 87.0226 63.9266 86.7266C64.4986 86.4146 65.1876 86.0996 65.9606 85.8686L70.0616 84.5946C71.4336 84.1896 72.8186 83.8316 74.2016 83.4666C76.9686 82.7286 79.7596 82.0676 82.5826 81.4856C85.9556 80.7786 89.4136 79.8236 92.8396 79.0006L104.162 76.3546C106.487 75.8206 108.813 75.2866 111.136 74.7526C114.654 73.9396 118.199 73.1626 121.683 72.3116C124.393 71.6586 127.021 70.8936 129.695 70.2056C130.283 70.0526 130.855 69.8826 131.45 69.7396C132.563 69.5016 133.312 69.4186 133.859 69.4646C134.402 69.4946 134.734 69.6076 135.022 69.8006C135.153 69.8886 135.318 69.9646 135.402 70.0546C135.682 70.3436 134.847 70.8766 133.29 71.5056C128.593 73.0046 123.55 74.1896 118.469 75.3366C114.692 76.1736 110.898 77.0146 107.111 77.8546L107.094 77.8046Z" fill="#202020"/>
<path fill-rule="evenodd" clip-rule="evenodd" d="M36.2763 75.4789C38.3013 76.5039 40.3373 77.5169 42.3883 78.4989L44.6543 79.5259C47.2973 80.7899 49.9413 82.0549 52.5823 83.3179C53.7553 83.8769 54.9503 84.4129 56.1303 84.9369C57.6423 85.6279 59.1963 86.2409 60.5763 87.2769C61.0083 87.5909 60.8053 87.7459 60.2933 87.7559C60.0363 87.7609 59.7043 87.7319 59.3353 87.6649C58.9503 87.5999 58.5053 87.5239 58.0853 87.3199C55.0373 85.9569 51.8773 84.7289 48.8413 83.1689C47.0173 82.2529 45.0353 81.4859 43.1303 80.6279C41.0373 79.6859 38.9523 78.7169 36.8773 77.7259L33.0553 75.8769C31.1293 74.9359 29.2223 73.9309 27.3223 72.9609C25.8533 72.1899 24.3533 71.5429 22.9023 70.7289C22.5813 70.5539 22.2553 70.4009 21.9453 70.2029C20.8113 69.4099 20.5513 69.0139 20.5963 68.4759C20.6073 68.3529 20.5993 68.2209 20.6303 68.1179C20.7293 67.7819 21.3793 67.8259 22.2413 68.2489C24.8183 69.4859 27.4513 70.9559 30.1843 72.3379C32.2083 73.3699 34.2363 74.4309 36.2933 75.4369L36.2763 75.4789Z" fill="#202020"/>
<path fill-rule="evenodd" clip-rule="evenodd" d="M122.598 60.3866C122.598 61.4176 122.599 62.4506 122.624 63.4856C122.633 63.8626 122.705 64.2336 122.708 64.6116C122.713 65.9456 122.728 67.2816 122.709 68.6206C122.71 69.2146 122.762 69.8066 122.822 70.3916C122.907 71.1416 122.95 71.9026 122.792 72.6686C122.74 72.9076 122.43 72.8926 122.081 72.7156C121.738 72.5366 121.318 72.2016 121.206 71.7816C120.986 71.0356 120.906 70.2816 120.844 69.5196C120.786 68.7576 120.736 67.9926 120.801 67.2106C120.869 66.2766 120.676 65.3276 120.616 64.3826L120.464 61.2536L120.394 59.3236C120.357 58.3486 120.361 57.3656 120.278 56.4006C120.223 55.6486 120.029 54.9176 119.941 54.1686C119.932 54.0036 119.902 53.8436 119.91 53.6756C119.916 53.5206 119.93 53.3916 119.955 53.2836C119.991 53.1756 120.067 53.0886 120.127 53.0166C120.257 52.8726 120.407 52.7906 120.603 52.7236C120.692 52.6946 120.776 52.6546 120.856 52.6376C121.107 52.5786 121.401 52.8276 121.71 53.2616C121.832 53.5856 121.956 53.9106 122.068 54.2406C122.142 54.5716 122.195 54.9036 122.249 55.2406C122.349 55.9136 122.413 56.5986 122.469 57.2876C122.547 58.3116 122.611 59.3446 122.653 60.3806L122.598 60.3866Z" fill="#DFAC03"/>
<path fill-rule="evenodd" clip-rule="evenodd" d="M89.2558 58.0916C85.2588 58.7856 81.2608 59.4756 77.2798 60.2236L72.9428 61.1166C70.3988 61.6286 67.8348 62.1186 65.3578 62.7646L64.4268 63.0036L63.6378 63.2586L63.4458 63.3176L63.3488 63.3456C63.3408 63.3746 63.3378 63.4086 63.3328 63.4396L63.3138 63.6356L63.2888 63.9906L63.0868 67.8896C62.9818 70.2006 62.9178 72.5276 62.8788 74.8226C62.8308 77.7716 62.8528 80.7376 62.6098 83.6746C62.4808 85.5086 60.9178 83.1666 60.8918 79.7526C60.8898 76.7346 60.9198 73.7206 60.9998 70.7006C61.0338 69.1906 61.1078 67.6796 61.1918 66.1656L61.3338 63.8866L61.3558 63.5606C61.3448 63.3796 61.4318 63.2486 61.4688 63.0936C61.5728 62.8076 61.6398 62.4636 61.7858 62.2586L61.8098 62.2146L61.8158 62.2036L61.8188 62.1976C61.8458 62.2156 61.5968 62.0256 61.7048 62.1036L61.7258 62.0866L61.8118 62.0176L61.9828 61.8816C62.0938 61.7886 62.2008 61.6926 62.3788 61.6536L63.2138 61.3736C65.0538 60.8276 66.8508 60.4156 68.6808 59.9646C70.5058 59.5386 72.3378 59.0986 74.1628 58.7306C78.1758 57.9016 82.1988 57.1536 86.2198 56.4036C88.6938 55.9466 91.1708 55.4906 93.6438 55.0346C97.3868 54.3356 101.156 53.6686 104.851 52.8786C107.724 52.2656 110.509 51.5306 113.315 50.8186C113.929 50.6536 114.531 50.4906 115.15 50.3236C117.462 49.7606 118.185 49.6496 118.84 50.0446C118.987 50.1316 119.171 50.2066 119.272 50.3056C119.616 50.6376 118.77 51.2376 117.084 51.8386C112.097 53.5146 106.735 54.7206 101.338 55.8156C97.3288 56.6316 93.2968 57.3926 89.2718 58.1456L89.2558 58.0916Z" fill="#DFAC03"/>
<path fill-rule="evenodd" clip-rule="evenodd" d="M70.6405 43.0242L80.9175 41.3342C82.1695 41.1292 83.4105 40.8652 84.6645 40.6792C86.8785 40.3512 89.0975 40.0442 91.3375 39.8022C92.4635 39.6952 93.5825 39.5902 94.7415 39.5652L95.6225 39.5662L96.1775 39.6042C96.3985 39.6202 96.5945 39.6712 96.8035 39.7132C97.3295 39.6652 97.3475 40.2172 97.5125 40.5882C97.5755 40.7772 97.6755 41.0042 97.7075 41.1602L97.8075 41.5892C98.2615 43.6212 98.3505 45.6612 98.3425 47.6412C98.3415 50.1882 98.2215 52.7002 98.2075 55.1822C98.2055 55.9542 97.9125 55.8902 97.5525 55.2462C97.1895 54.6042 96.7775 53.3552 96.7185 51.8842C96.6315 49.2832 96.6115 46.7252 96.3815 44.2922C96.3175 43.6842 96.2255 43.0892 96.1085 42.5062C96.0505 42.2172 95.9675 41.9312 95.9035 41.6532C95.8915 41.5842 95.9015 41.5692 95.8885 41.5212C95.8725 41.5132 95.8565 41.5012 95.8375 41.4962C95.8255 41.4942 95.8195 41.4912 95.8145 41.4862L95.8065 41.4802L95.7095 41.4722C95.4245 41.4672 95.1255 41.4642 94.8225 41.4722C94.2075 41.4912 93.5775 41.5332 92.9445 41.5782C89.8975 41.8122 86.7285 42.4682 83.6125 43.0132L73.3085 44.8572L66.9635 46.0132C63.7605 46.6002 60.5335 47.1502 57.3565 47.7632C54.8845 48.2322 52.4865 48.8432 50.0285 49.2932C49.4885 49.3962 48.9615 49.5122 48.4115 49.5932C47.3935 49.7512 46.7095 49.7952 46.2225 49.7412C45.7305 49.6622 45.4365 49.5042 45.1875 49.2502C45.0745 49.1342 44.9305 49.0242 44.8605 48.9092C44.6295 48.5382 45.4055 48.0342 46.8495 47.6802C51.1345 46.6192 55.7045 45.7302 60.3125 44.8612C63.7355 44.2202 67.1775 43.5742 70.6245 42.9682L70.6405 43.0242Z" fill="#DFAC03"/>
<path fill-rule="evenodd" clip-rule="evenodd" d="M43.7255 62.5834L43.6235 65.9114C43.6155 66.3174 43.6595 66.7204 43.6455 67.1254C43.5875 68.5564 43.5285 69.9944 43.4705 71.4224C43.4485 72.0574 43.4605 72.6984 43.4825 73.3314C43.4975 74.1484 43.6025 74.9644 43.3455 75.8124C43.2685 76.0754 42.9065 75.9774 42.5595 75.7294C42.2165 75.4794 41.8795 75.1124 41.8665 74.6594C41.8385 73.0674 41.7995 71.4194 41.9565 69.7604C42.0615 68.7654 41.9465 67.7344 41.9425 66.7174L41.9605 63.3574L41.9805 61.2874C41.9865 60.2414 42.0345 59.1904 42.0125 58.1504C42.0055 57.3414 41.8685 56.5474 41.8765 55.7364C41.8745 55.5584 41.8575 55.3834 41.8655 55.2034C41.9135 54.5304 42.0505 54.3234 42.4655 54.2224C42.5595 54.1984 42.6545 54.1654 42.7465 54.1564C43.0595 54.1254 43.3015 54.4144 43.3875 54.8834C43.5045 55.5824 43.6515 56.2984 43.6915 57.0274C43.7335 57.7534 43.7615 58.4984 43.7705 59.2414C43.8035 60.3484 43.7795 61.4644 43.7695 62.5814L43.7255 62.5834Z" fill="#DFAC03"/>
<path fill-rule="evenodd" clip-rule="evenodd" d="M35.5814 54.4906L35.4574 58.9646C35.4474 59.5086 35.4944 60.0516 35.4784 60.5956C35.4084 62.5156 35.3384 64.4406 35.2684 66.3586C35.2424 67.2106 35.2574 68.0696 35.2854 68.9166C35.3074 70.0126 35.4334 71.0906 35.1484 72.2366C35.0604 72.5936 34.6534 72.4706 34.2644 72.1496C33.8834 71.8356 33.4924 71.3406 33.4764 70.7236C33.4314 68.5566 33.3874 66.3386 33.5694 64.1086C33.6894 62.7716 33.5644 61.3856 33.5634 60.0186L33.5934 55.5086L33.6184 52.7306C33.6234 51.3286 33.6744 49.9196 33.6454 48.5256C33.6254 47.4416 33.4764 46.3786 33.4694 45.2956C33.4664 45.0566 33.4474 44.8226 33.4554 44.5816C33.4934 43.6846 33.6654 43.3906 34.1284 43.2466C34.2354 43.2136 34.3424 43.1666 34.4464 43.1526C34.7974 43.1056 35.0684 43.4866 35.1614 44.1086C35.2994 45.0456 35.4754 46.0126 35.5234 46.9976C35.5814 47.9806 35.6094 48.9826 35.6294 49.9886C35.6674 51.4806 35.6434 52.9846 35.6314 54.4876L35.5814 54.4906Z" fill="#DFAC03"/>
<path fill-rule="evenodd" clip-rule="evenodd" d="M62.8534 36.6991L56.0604 37.8331L53.5954 38.3201C50.6844 38.8231 47.7704 39.3271 44.8614 39.8301C43.5714 40.0621 42.2834 40.3441 41.0144 40.6281C39.3834 40.9951 37.7594 41.4251 36.0904 41.6081C35.0524 41.7291 36.0674 40.1501 37.9364 39.6851C41.2554 38.8921 44.5884 38.1701 47.9944 37.6401C50.0334 37.3361 52.1124 36.8111 54.1794 36.4051L61.0114 35.1261L65.2234 34.3721C67.3474 33.9851 69.4914 33.6441 71.5944 33.2281C73.2314 32.9121 74.8154 32.4841 76.4274 32.1201C76.7824 32.0391 77.1254 31.9411 77.4864 31.8731C78.8214 31.6211 79.2704 31.6901 79.6434 32.1941C79.7284 32.3081 79.8334 32.4191 79.8914 32.5391C80.0854 32.9441 79.5954 33.3821 78.6384 33.6581C75.8014 34.4881 72.7614 35.0241 69.7044 35.5691C67.4304 35.9601 65.1454 36.3531 62.8654 36.7451L62.8534 36.6991Z" fill="#DFAC03"/>
<path fill-rule="evenodd" clip-rule="evenodd" d="M68.4389 29.3681C69.3049 29.2341 70.1719 29.0991 71.0349 28.9661C71.3489 28.9181 71.6529 28.8291 71.9679 28.7891C73.0749 28.6611 74.1909 28.5331 75.2959 28.4051C75.7869 28.3471 76.2729 28.2481 76.7599 28.1771C77.3849 28.0771 78.0009 27.9371 78.6809 28.0311C78.9039 28.0671 78.8549 28.3101 78.7089 28.5671C78.5619 28.8231 78.3149 29.1221 77.9739 29.2101C76.7659 29.5351 75.5179 29.7581 74.2309 29.8401C73.4599 29.8931 72.6949 30.1321 71.9279 30.2881C71.0859 30.4601 70.2419 30.6331 69.3989 30.8051C68.8829 30.9181 68.3689 31.0351 67.8689 31.1771L67.1629 31.3861C67.0809 31.4141 66.9949 31.4421 66.9219 31.4931C66.8379 31.5451 66.8819 31.6521 66.8649 31.7341L66.8609 31.8951L66.8639 32.1711C66.8759 32.7971 66.9989 33.4121 67.1019 34.0091C67.1259 34.1391 67.1699 34.2671 67.1699 34.3931C67.1709 34.6311 67.1619 34.7671 67.0509 34.8751C66.9039 34.9751 66.7369 35.0551 66.5329 35.1371C66.4389 35.1771 66.3559 35.2301 66.2749 35.2681C66.1369 35.3321 65.9999 35.3351 65.8119 35.2361C65.6339 35.1451 65.3829 34.9851 65.3369 34.7731C65.0969 34.2151 65.0669 33.6791 65.0439 33.1421C65.0369 32.8741 65.0419 32.6071 65.0519 32.3431L65.0729 31.9491L65.0879 31.6551C65.0939 31.5221 65.1029 31.3901 65.1199 31.2621C65.1289 31.0701 65.1839 30.9081 65.2419 30.7481C65.4519 30.6461 65.3789 30.3731 65.5849 30.2811C65.7249 30.1451 65.9199 30.0471 66.1059 29.9531C66.3089 29.8791 66.5079 29.7911 66.7159 29.7341L67.0989 29.6271C67.5519 29.5111 67.9909 29.4191 68.4279 29.3291L68.4389 29.3681Z" fill="#DFAC03"/>
<path fill-rule="evenodd" clip-rule="evenodd" d="M60.2235 42.2831C59.3715 42.3481 58.4965 42.4541 57.6275 42.5801C57.3095 42.6271 57.0015 42.7191 56.6835 42.7641C55.5605 42.9241 54.4315 43.0821 53.3125 43.2791C52.8155 43.3661 52.3265 43.4991 51.8375 43.6091C51.2115 43.7611 50.5955 43.9511 49.9235 43.9541C49.7085 43.9531 49.6985 43.7091 49.8105 43.4291C49.9235 43.1521 50.1585 42.8161 50.5065 42.6931C51.7365 42.2381 53.0155 41.9321 54.3435 41.7861C55.1375 41.6961 55.9225 41.4311 56.7185 41.2631C57.5945 41.0811 58.4755 40.9191 59.3695 40.7781L60.2005 40.6591C60.4185 40.6351 60.9405 40.5531 61.3005 40.5641C61.5625 40.5641 61.8025 40.6001 61.9835 40.7381C62.2035 40.8541 62.2075 41.1181 62.2915 41.3531C62.4215 42.1031 62.4885 42.4521 62.5935 42.9261C62.7365 43.5541 62.9855 44.1521 63.1855 44.7781C63.2295 44.9161 63.2935 45.0501 63.3085 45.1961C63.3415 45.4671 63.3395 45.6581 63.2315 45.8031C63.0815 45.9551 62.9135 46.0421 62.6915 46.1081C62.5915 46.1361 62.4975 46.1651 62.4115 46.1721C62.2635 46.1841 62.1295 46.1271 61.9665 46.0681C61.8065 46.0011 61.5675 45.8951 61.5145 45.7281C60.9875 44.7311 60.8695 43.5461 60.6995 42.3741C60.6785 42.2851 60.7055 42.3441 60.6895 42.3301C60.7075 42.3191 60.7075 42.3081 60.7035 42.2971C60.7015 42.2911 60.6955 42.2871 60.6885 42.2811L60.2315 42.3231L60.2235 42.2831Z" fill="#DFAC03"/>
<path fill-rule="evenodd" clip-rule="evenodd" d="M107.598 101.562C105.645 101.999 103.689 102.388 101.733 102.766C101.019 102.903 100.319 103.101 99.6025 103.223C98.3395 103.439 97.0715 103.635 95.7975 103.81C95.1605 103.896 94.5225 103.983 93.8775 104.05L92.9025 104.132L92.4045 104.162C92.2625 104.159 91.9435 104.191 91.7295 104.175C91.5175 104.171 91.3165 104.144 91.1265 104.083C91.0795 104.069 91.0275 104.054 90.9845 104.032L90.8875 103.916L90.6935 103.684C90.4565 103.369 90.2585 102.934 90.1545 102.572C89.9635 101.941 89.9005 101.318 89.8775 100.722C89.8555 99.9574 89.8695 99.2154 89.9395 98.4994C90.0155 97.7844 90.1285 97.0944 90.1915 96.4194C90.2315 96.0054 90.5395 95.9944 90.9175 96.3584C91.2905 96.7174 91.7155 97.4974 91.7625 98.3484C91.8205 99.1004 91.7485 99.8124 91.7945 100.469C91.8135 100.794 91.8345 101.114 91.8885 101.396C91.9075 101.545 91.9445 101.675 91.9765 101.806C91.9895 101.874 92.0115 101.933 92.0345 101.99C92.0625 102.053 92.0275 102.017 92.0385 102.033C92.0365 102.047 92.0255 102.092 92.0475 102.112C92.0575 102.122 92.0705 102.131 92.0875 102.14C92.0665 102.149 92.1625 102.141 92.2505 102.134L92.5055 102.111C93.1975 102.042 93.9215 101.959 94.6525 101.91C96.4025 101.768 98.1805 101.291 99.9445 100.936C101.886 100.542 103.829 100.139 105.76 99.6914C106.949 99.4154 108.136 99.1334 109.307 98.8074C111.07 98.3044 112.885 97.8134 114.466 97.0474C114.616 96.9724 114.763 96.8934 114.897 96.8094C115.011 96.7404 115.068 96.6934 115.145 96.6274C115.214 96.5634 115.281 96.4984 115.318 96.4144C115.358 96.3284 115.325 96.2264 115.32 96.1384L115.301 96.0074L115.282 95.7614L115.233 95.2504L115.105 94.2424C115.061 93.9504 114.992 93.6684 114.944 93.3874C114.793 92.3334 114.936 92.1104 115.41 91.6564C115.512 91.5464 115.616 91.4354 115.715 91.3284C116.033 90.9484 116.773 91.3624 117.167 92.3134C117.465 93.0014 117.556 93.6984 117.658 94.3874C117.702 94.7334 117.731 95.0794 117.752 95.4284L117.773 95.9514L117.776 96.0944C117.767 96.1724 117.77 96.2524 117.767 96.3324C117.758 96.4894 117.771 96.6554 117.744 96.8074C117.696 97.4274 117.355 98.0004 116.836 98.3824C116.596 98.5754 116.281 98.7774 116.044 98.9034C115.863 99.0054 115.691 99.0904 115.517 99.1754C114.832 99.4994 114.171 99.7474 113.508 99.9774C111.545 100.652 109.574 101.116 107.616 101.616L107.598 101.562Z" fill="#202020"/>
<path fill-rule="evenodd" clip-rule="evenodd" d="M19.6293 90.4241C19.6293 90.4241 14.5253 88.9241 11.4113 91.3601C8.64729 93.5231 19.8883 104.758 42.9073 108.703L20.1183 94.8731L19.6293 90.4241Z" fill="#202020"/>
<path fill-rule="evenodd" clip-rule="evenodd" d="M104.343 76.7777L94.2727 79.0657L90.6157 79.9667L77.6867 82.9937C75.7757 83.4447 73.8647 83.9437 71.9827 84.4457C69.5547 85.0517 67.1357 85.7407 64.6717 86.1857C63.9097 86.3397 63.9787 86.2337 64.5647 85.8907C64.8587 85.7147 65.2817 85.4797 65.7957 85.2137C66.3067 84.9327 66.9217 84.6527 67.6117 84.4387C70.0457 83.6297 72.4907 82.8737 74.9687 82.2207C77.4397 81.5377 79.9307 80.9137 82.4517 80.3657C85.4647 79.6957 88.5517 78.8137 91.6137 78.0487L101.726 75.5807L107.956 74.0907C111.099 73.3317 114.267 72.6097 117.38 71.8247C119.8 71.2147 122.152 70.5267 124.536 69.8837C125.061 69.7407 125.572 69.5867 126.105 69.4577C127.096 69.2317 127.763 69.1447 128.251 69.1737C128.737 69.1877 129.033 69.2777 129.292 69.4377C129.41 69.5107 129.558 69.5727 129.634 69.6477C129.886 69.8897 129.144 70.3647 127.753 70.9377C123.552 72.3087 119.045 73.4077 114.506 74.4737C111.131 75.2547 107.741 76.0377 104.358 76.8197L104.343 76.7777Z" fill="#202020"/>
<path fill-rule="evenodd" clip-rule="evenodd" d="M81.9013 47.7235C82.4413 47.6565 82.9833 47.5895 83.5203 47.5235C83.7163 47.4965 83.9073 47.4415 84.1043 47.4185C84.7973 47.3405 85.5023 47.2615 86.1893 47.1835C86.4973 47.1505 86.8023 47.0895 87.1023 47.0255C87.4873 46.9415 87.8673 46.8245 88.2723 46.8445C88.5243 46.8515 88.3613 47.6405 87.9253 47.7755C87.1473 47.9835 86.3663 48.1785 85.5433 48.1945C85.0523 48.2125 84.5673 48.3585 84.0773 48.4405C83.5413 48.5245 82.9993 48.6105 82.4603 48.6955C82.1273 48.7485 81.7923 48.8025 81.4623 48.8545C80.9023 48.9465 80.4333 48.9315 79.9263 49.0295C79.5413 49.0945 79.1723 49.2235 78.7963 49.3275C78.7133 49.3505 78.6333 49.3835 78.5493 49.4005C78.2373 49.4655 78.1263 49.4085 78.0153 49.1295C77.9903 49.0665 77.9603 49.0045 77.9413 48.9395C77.8773 48.7225 77.9783 48.5185 78.2013 48.4195C78.8603 48.1225 79.5813 47.9885 80.3223 47.8915C80.5873 47.8515 80.9173 47.8395 81.1023 47.8185L81.8953 47.6975L81.9013 47.7235Z" fill="#DFAC03"/>
<path fill-rule="evenodd" clip-rule="evenodd" d="M78.496 53.6385C79.462 53.4895 80.429 53.3405 81.392 53.1925C81.745 53.1245 82.089 53.0585 82.442 52.9915C83.681 52.7895 84.928 52.5865 86.163 52.3855C86.714 52.2945 87.261 52.1735 87.8 52.0495C88.492 51.8885 89.18 51.6935 89.894 51.6335C90.338 51.5905 89.953 52.4385 89.163 52.6645C87.756 53.0335 86.344 53.3835 84.88 53.5455C84.006 53.6525 83.123 53.8855 82.241 54.0495L79.326 54.5595L77.531 54.8645C76.626 55.0225 75.712 55.1605 74.818 55.3385C74.123 55.4785 73.453 55.6755 72.771 55.8465C72.622 55.8845 72.471 55.9235 72.323 55.9615C71.758 56.0795 71.564 56.0395 71.392 55.7745C71.353 55.7135 71.306 55.6555 71.278 55.5925C71.185 55.3805 71.385 55.1565 71.788 55.0175C72.986 54.6105 74.276 54.3465 75.577 54.1045C76.545 53.9415 77.518 53.7765 78.49 53.6125L78.496 53.6385Z" fill="#DFAC03"/>
</svg>
