<svg width="154" height="148" viewBox="0 0 154 148" fill="none" xmlns="http://www.w3.org/2000/svg">
<path fill-rule="evenodd" clip-rule="evenodd" d="M88.5197 57.4931L83.4997 58.3421L81.6767 58.6991C79.5257 59.0821 77.3717 59.4661 75.2227 59.8481C74.2697 60.0391 73.3157 60.2301 72.3707 60.4201C71.1517 60.6681 69.9667 60.9821 68.6617 61.0191C68.2457 61.0231 68.3247 60.7841 68.6267 60.5231C68.9157 60.2781 69.4527 59.9461 70.1417 59.8161C72.5947 59.3091 75.0677 58.7991 77.5877 58.4261C79.0947 58.1981 80.6357 57.8291 82.1657 57.5371L87.2247 56.6161L90.3447 56.0821C91.9237 55.8311 93.5097 55.5791 95.0777 55.3301C96.2987 55.1441 97.4837 54.8841 98.7077 54.7271L99.5107 54.6101C100.531 54.5321 100.865 54.6071 101.083 54.9091C101.133 54.9781 101.198 55.0471 101.226 55.1181C101.32 55.3571 100.917 55.5741 100.208 55.6711C98.0097 56.0101 95.8177 56.3471 93.5847 56.6921C91.9027 56.9671 90.2127 57.2431 88.5267 57.5191L88.5197 57.4931Z" fill="#6940A5"/>
<path fill-rule="evenodd" clip-rule="evenodd" d="M44.9299 75.9677C46.8679 76.9587 48.8199 77.9287 50.7839 78.8747L52.9509 79.8727C55.4809 81.0887 58.0129 82.3057 60.5409 83.5207C61.6649 84.0607 62.8069 84.5767 63.9329 85.0907C65.3789 85.7577 66.8599 86.3657 68.1839 87.3357C68.5989 87.6317 68.4229 87.7557 67.9489 87.7347C67.7099 87.7257 67.4039 87.6787 67.0509 87.6007C66.6889 87.5237 66.2699 87.4337 65.8669 87.2337C62.9499 85.9007 59.9379 84.6887 57.0259 83.1997C55.2769 82.3237 53.3869 81.5637 51.5659 80.7347C49.5639 79.8197 47.5729 78.8797 45.5869 77.9267L41.9319 76.1407C40.0889 75.2347 38.2639 74.2697 36.4449 73.3447C35.0369 72.6117 33.6129 71.9687 32.2199 71.2227C31.9119 71.0587 31.5959 70.9287 31.3049 70.7277C30.2039 70.0227 29.9319 69.6797 29.9159 69.2067C29.9119 69.0997 29.8909 68.9837 29.9079 68.8927C29.9609 68.5987 30.5589 68.6467 31.4069 69.0407C33.9179 70.2117 36.4529 71.6317 39.0839 72.9497C41.0229 73.9497 42.9729 74.9647 44.9439 75.9327L44.9299 75.9677Z" fill="#202020"/>
<path fill-rule="evenodd" clip-rule="evenodd" d="M67.9377 69.6894C67.8427 70.7064 67.7477 71.7254 67.6527 72.7404C67.6217 73.1114 67.6287 73.4834 67.5937 73.8544C67.4747 75.1614 67.3547 76.4744 67.2347 77.7784C67.1917 78.3584 67.1677 78.9434 67.1607 79.5204C67.1517 80.2604 67.1827 81.0074 67.0547 81.7384C66.9807 82.2004 66.0407 81.6104 66.0007 80.7424C65.9557 79.2174 65.9937 77.7024 66.2137 76.1794C66.3387 75.2694 66.3107 74.3154 66.3637 73.3814L66.5637 70.3014L66.6987 68.4064C66.7637 67.4504 66.8477 66.4904 66.8747 65.5384C66.8927 64.7984 66.8447 64.0704 66.8387 63.3364C66.8377 63.1744 66.8257 63.0154 66.8317 62.8524C66.8407 62.5514 66.8757 62.3464 66.9457 62.2104C66.9807 62.1424 67.0247 62.0894 67.0817 62.0474C67.1427 61.9464 67.2427 61.8624 67.3307 61.8604C67.4127 61.8514 67.4687 61.8744 67.4967 61.9254C67.5397 62.0154 67.4457 61.8044 67.4877 61.9004C67.5617 62.0664 67.5597 62.0554 67.5837 62.0904C67.6247 62.1494 67.7177 62.2004 67.8067 62.1624C67.8957 62.0704 67.9087 62.1634 67.9437 62.2524C67.9737 62.3374 67.9957 62.4344 68.0097 62.5434C68.1827 63.8464 68.1977 65.2294 68.1357 66.6074C68.0967 67.6324 68.0377 68.6624 67.9717 69.6894H67.9377Z" fill="#6940A5"/>
<path fill-rule="evenodd" clip-rule="evenodd" d="M48.3649 63.3329C48.3289 64.2699 48.3079 65.2119 48.3009 66.1539C48.3089 66.4989 48.3179 66.8369 48.3259 67.1839C48.3079 68.3969 48.2889 69.6189 48.2709 70.8299C48.2659 71.3699 48.2849 71.9139 48.3079 72.4509C48.3269 73.1439 48.4069 73.8399 48.2209 74.5559C48.1659 74.7769 47.9259 74.7059 47.6969 74.5019C47.4729 74.2969 47.2519 73.9819 47.2409 73.5979C47.2189 72.2409 47.1549 70.8369 47.2349 69.4229C47.2879 68.5759 47.1989 67.6979 47.1849 66.8319C47.1719 65.8779 47.1759 64.9239 47.1829 63.9689C47.1929 63.3809 47.2029 62.7919 47.2129 62.2059C47.2419 61.3139 47.2709 60.4209 47.3009 59.5369C47.3139 58.8489 47.2649 58.1679 47.2989 57.4829C47.3019 57.3329 47.3029 57.1839 47.3199 57.0319C47.3829 56.4699 47.4799 56.2989 47.7619 56.2139C47.8259 56.1949 47.8909 56.1669 47.9529 56.1599C48.1629 56.1339 48.3129 56.3799 48.3489 56.7869C48.4739 57.9909 48.4649 59.2379 48.4439 60.5019C48.4269 61.4419 48.4109 62.3879 48.3949 63.3319L48.3649 63.3329Z" fill="#6940A5"/>
<path fill-rule="evenodd" clip-rule="evenodd" d="M74.4597 30.5033C75.1577 30.2793 75.8587 30.1213 76.5617 29.9753C76.8177 29.9213 77.0607 29.8223 77.3197 29.7833C78.2317 29.6333 79.1607 29.5613 80.0747 29.4443C80.4827 29.4003 80.8827 29.3183 81.2827 29.2603C81.7977 29.1913 82.3177 29.1253 82.8527 29.1463C83.0187 29.1523 82.9897 29.1223 82.8637 29.1803C82.7347 29.2293 82.5307 29.4443 82.2667 29.6053C81.3417 30.2163 80.3827 30.6633 79.3437 30.8673C78.7187 30.9743 78.1157 31.2553 77.4937 31.4223C76.8117 31.6083 76.1157 31.7583 75.4297 31.9213C75.0067 32.0203 74.5847 32.1183 74.1807 32.2353C73.8687 32.3363 73.6117 32.3973 73.4697 32.5323C73.3037 32.6753 73.2007 32.9413 73.1467 33.2323C73.0707 33.6913 73.1227 34.1863 73.0817 34.6983C73.0737 34.8113 73.0657 34.9293 73.0587 35.0383C73.0127 35.4683 72.9087 35.6023 72.8957 35.6893C72.8897 35.7093 72.8857 35.7353 72.8847 35.7473C72.8857 35.7893 72.8927 35.6113 72.7737 35.3163C72.5307 34.4263 71.7767 33.6203 72.2027 32.1393C72.3047 31.8723 72.4697 31.5773 72.7217 31.3573C72.9517 31.1323 73.2207 31.0103 73.3827 30.9223C73.7577 30.7253 74.0957 30.5993 74.4457 30.4653L74.4597 30.5033Z" fill="#6940A5"/>
<path fill-rule="evenodd" clip-rule="evenodd" d="M65.1496 43.7079C65.1736 43.8079 65.1376 43.7289 65.1126 43.7479C65.0826 43.7429 65.0696 43.7299 65.0256 43.7259C64.9316 43.7189 64.8546 43.6969 64.7416 43.6899C64.5276 43.6699 64.2876 43.6549 64.0416 43.6419C63.8566 43.6369 63.6876 43.6989 63.4946 43.6819C62.8226 43.6249 62.0996 43.4889 61.3876 43.4369C61.0696 43.4019 60.7606 43.4259 60.4476 43.4169C60.0466 43.3959 59.6276 43.3709 59.2136 43.1879C59.0876 43.1339 59.1086 43.1879 59.2066 43.1329C59.3076 43.0939 59.4576 42.8219 59.6436 42.6469C60.2946 41.9539 60.9836 41.5069 61.8056 41.4689C62.2976 41.4679 62.7656 41.2119 63.2746 41.1459C63.8396 41.0809 64.4116 41.0759 65.0866 41.1699C65.4676 41.2079 66.1916 41.4309 66.5216 41.8659C67.0536 42.5119 67.0526 43.1399 67.1446 43.6569C67.2016 44.0669 67.2716 44.4419 67.2196 44.8319C67.2126 44.9169 67.2096 44.9989 67.1956 45.0839C67.1516 45.4009 67.0656 45.5349 67.0776 45.6039C67.0766 45.6209 67.0816 45.6409 67.0846 45.6489C67.1096 45.6699 67.0236 45.5759 66.7936 45.3909C66.5186 45.0959 66.1976 44.7769 65.8976 44.4889C65.6456 44.1919 65.3756 43.9269 65.2036 43.7489C65.1326 43.6939 65.0676 43.6309 65.0116 43.6199C64.9826 43.6119 64.9586 43.5939 64.9466 43.6029L64.9286 43.6049C64.9176 43.6129 64.9276 43.6029 64.9616 43.5739C64.9876 43.5489 64.9956 43.5489 65.0136 43.5339C65.0706 43.4929 65.1406 43.4149 65.1756 43.3699C65.1986 43.3489 65.2206 43.3199 65.2396 43.2829C65.2336 43.2919 65.2306 43.3079 65.2306 43.3079V43.3089V43.3099C65.2076 43.3799 65.4336 42.6959 65.3376 42.9859L65.3366 42.9879L65.3356 42.9909L65.3326 42.9979L65.3216 43.0229L65.3026 43.0749L65.2336 43.2819C65.1936 43.4219 65.1656 43.5629 65.1496 43.7049V43.7079Z" fill="#6940A5"/>
<path fill-rule="evenodd" clip-rule="evenodd" d="M34.2731 98.0698C37.2091 99.9208 40.1651 101.755 43.1401 103.556C44.2251 104.215 45.3501 104.805 46.4321 105.467L57.8761 112.495C59.5761 113.523 61.3151 114.503 63.0361 115.464C65.2531 116.686 67.4471 117.973 69.5381 119.421C70.1871 119.876 69.9481 120.078 69.2031 120.036C68.4611 119.988 67.1901 119.743 65.8681 119.118C63.5151 118.032 61.2511 116.788 58.9921 115.521C56.7331 114.256 54.4911 112.948 52.2751 111.57C49.6201 109.932 46.7491 108.415 43.9921 106.808C40.9631 105.038 37.9491 103.237 34.9441 101.417C33.0951 100.295 31.2501 99.1678 29.4151 98.0118C28.7181 97.5818 28.0281 97.1238 27.3371 96.6718C26.9921 96.4518 26.6481 96.2088 26.3041 95.9648C26.1081 95.8208 25.8231 95.6458 25.6171 95.4648L25.4491 95.3288C25.4221 95.2638 25.4071 95.1898 25.3861 95.1208C25.3421 94.9818 25.3071 94.8408 25.2861 94.6978C25.1551 94.0618 25.1441 93.7288 25.0951 93.2948L24.9921 92.0608C24.9311 91.2428 24.8701 90.4268 24.8101 89.6138C24.6211 87.0898 24.3181 84.6248 24.1811 82.1248C24.1461 81.5748 24.0961 81.0358 24.0791 80.4798C24.0401 79.4488 24.1211 78.7648 24.2501 78.2838C24.4231 77.8038 24.6211 77.5248 24.8591 77.3048C24.9681 77.2038 25.0681 77.0718 25.1621 77.0138C25.3211 76.9168 25.4651 77.0778 25.6511 77.4458C25.8301 77.8148 26.0981 78.3908 26.1941 79.1328C26.5321 81.3378 26.8061 83.6068 27.0261 85.9078C27.2231 88.2018 27.3691 90.5578 27.5901 92.8358L27.6971 93.8088C27.7101 93.8358 27.6661 93.7978 27.7291 93.8468C28.3821 94.3168 29.1481 94.7788 29.8581 95.2478L34.3021 98.0128L34.2731 98.0698Z" fill="#202020"/>
<path fill-rule="evenodd" clip-rule="evenodd" d="M70.3215 106.096L70.2905 109.581C70.2935 110.005 70.3555 110.426 70.3515 110.85C70.3315 112.348 70.3115 113.853 70.2915 115.349C70.2845 116.015 70.3245 116.683 70.3735 117.343C70.4275 118.196 70.5715 119.034 70.3525 119.938C70.2865 120.217 69.8955 120.14 69.5055 119.905C69.1205 119.671 68.7175 119.306 68.6655 118.829C68.5105 117.153 68.3365 115.432 68.4745 113.685C68.5555 112.638 68.3845 111.564 68.3435 110.499L68.2525 106.98L68.2105 104.812C68.1865 103.717 68.2235 102.614 68.1755 101.525C68.1345 100.679 67.9905 99.8476 67.9805 98.9926C67.9775 98.8036 67.9585 98.6186 67.9665 98.4276C68.0055 97.7156 68.1815 97.4756 68.6215 97.3866C68.7235 97.3646 68.8255 97.3326 68.9245 97.3266C69.2585 97.3086 69.5175 97.6176 69.6135 98.0856C69.7655 98.7996 69.9405 99.5406 70.0435 100.298C70.1335 101.054 70.1925 101.825 70.2495 102.603L70.3525 104.341L70.3735 106.092L70.3215 106.096Z" fill="#202020"/>
<path fill-rule="evenodd" clip-rule="evenodd" d="M133.009 106.252L118.043 110C116.222 110.451 114.42 110.973 112.596 111.402L93.2815 115.899C90.4295 116.587 87.5635 117.278 84.7335 117.96C81.0865 118.806 77.4685 119.816 73.6835 120.173C72.4735 120.235 72.6295 119.876 73.5305 119.338C74.4275 118.766 76.0895 117.973 78.1705 117.465C85.5375 115.61 92.9415 113.797 100.448 112.137C104.941 111.148 109.543 109.825 114.098 108.651L129.135 104.81C132.216 104.008 135.3 103.208 138.359 102.357L140.206 101.832L140.732 101.677C140.793 101.639 140.947 101.651 140.92 101.546L140.925 101.29C140.932 97.8354 140.939 94.3874 140.946 90.9684C140.931 87.2424 140.799 83.5854 140.828 79.8864C140.834 79.0714 140.829 78.2714 140.854 77.4494C141.006 74.3984 141.323 73.4174 142.019 72.8414C142.179 72.7104 142.343 72.5334 142.495 72.4664C143.02 72.2514 143.248 73.4934 143.266 75.6814C143.36 82.2004 143.382 89.1144 143.375 96.0654C143.37 98.0924 143.364 100.123 143.36 102.161L143.19 102.666L143.105 102.918L143.062 103.043L143.041 103.106C143.224 103.237 142.791 102.932 142.835 102.964L142.833 102.968L142.828 102.974L142.82 102.987L142.802 103.013L142.528 103.426C142.455 103.584 142.232 103.647 142.091 103.761C141.755 103.932 141.29 104.04 140.955 104.149L140.341 104.327L137.901 105.003L133.031 106.308L133.009 106.252Z" fill="#202020"/>
<path fill-rule="evenodd" clip-rule="evenodd" d="M113.093 77.8046L101.819 80.2466L97.7244 81.2126L83.2444 84.4296C81.1054 84.9136 78.9644 85.4416 76.8574 85.9836C74.1374 86.6266 71.4274 87.3726 68.6714 87.8306C67.8184 87.9926 67.8924 87.8726 68.5484 87.4856C68.8754 87.2896 69.3514 87.0226 69.9264 86.7266C70.4984 86.4146 71.1874 86.0996 71.9604 85.8686L76.0614 84.5946C77.4334 84.1896 78.8184 83.8316 80.2014 83.4666C82.9684 82.7286 85.7594 82.0676 88.5824 81.4856C91.9554 80.7786 95.4134 79.8236 98.8394 79.0006L110.161 76.3546C112.486 75.8206 114.812 75.2866 117.135 74.7526C120.653 73.9396 124.198 73.1626 127.682 72.3116C130.392 71.6586 133.02 70.8936 135.694 70.2056C136.282 70.0526 136.854 69.8826 137.449 69.7396C138.562 69.5016 139.311 69.4186 139.858 69.4646C140.401 69.4946 140.733 69.6076 141.021 69.8006C141.152 69.8886 141.317 69.9646 141.401 70.0546C141.681 70.3436 140.846 70.8766 139.289 71.5056C134.592 73.0046 129.549 74.1896 124.468 75.3366C120.691 76.1736 116.897 77.0146 113.11 77.8546L113.093 77.8046Z" fill="#202020"/>
<path fill-rule="evenodd" clip-rule="evenodd" d="M42.2761 75.4789C44.3011 76.5039 46.3371 77.5169 48.3881 78.4989L50.6541 79.5259C53.2971 80.7899 55.9411 82.0549 58.5821 83.3179C59.7551 83.8769 60.9501 84.4129 62.1301 84.9369C63.6421 85.6279 65.1961 86.2409 66.5761 87.2769C67.0081 87.5909 66.8051 87.7459 66.2931 87.7559C66.0361 87.7609 65.7041 87.7319 65.3351 87.6649C64.9501 87.5999 64.5051 87.5239 64.0851 87.3199C61.0371 85.9569 57.8771 84.7289 54.8411 83.1689C53.0171 82.2529 51.0351 81.4859 49.1301 80.6279C47.0371 79.6859 44.9521 78.7169 42.8771 77.7259L39.0551 75.8769C37.1291 74.9359 35.2221 73.9309 33.3221 72.9609C31.8531 72.1899 30.3531 71.5429 28.9021 70.7289C28.5811 70.5539 28.2551 70.4009 27.9451 70.2029C26.8111 69.4099 26.5511 69.0139 26.5961 68.4759C26.6071 68.3529 26.5991 68.2209 26.6301 68.1179C26.7291 67.7819 27.3791 67.8259 28.2411 68.2489C30.8181 69.4859 33.4511 70.9559 36.1841 72.3379C38.2081 73.3699 40.2361 74.4309 42.2931 75.4369L42.2761 75.4789Z" fill="#202020"/>
<path fill-rule="evenodd" clip-rule="evenodd" d="M128.597 60.3866C128.597 61.4176 128.598 62.4506 128.623 63.4856C128.632 63.8626 128.704 64.2336 128.707 64.6116C128.712 65.9456 128.727 67.2816 128.708 68.6206C128.709 69.2146 128.761 69.8066 128.821 70.3916C128.906 71.1416 128.949 71.9026 128.791 72.6686C128.739 72.9076 128.429 72.8926 128.08 72.7156C127.737 72.5366 127.317 72.2016 127.205 71.7816C126.985 71.0356 126.905 70.2816 126.843 69.5196C126.785 68.7576 126.735 67.9926 126.8 67.2106C126.868 66.2766 126.675 65.3276 126.615 64.3826L126.463 61.2536L126.393 59.3236C126.356 58.3486 126.36 57.3656 126.277 56.4006C126.222 55.6486 126.028 54.9176 125.94 54.1686C125.931 54.0036 125.901 53.8436 125.909 53.6756C125.915 53.5206 125.929 53.3916 125.954 53.2836C125.99 53.1756 126.066 53.0886 126.126 53.0166C126.256 52.8726 126.406 52.7906 126.602 52.7236C126.691 52.6946 126.775 52.6546 126.855 52.6376C127.106 52.5786 127.4 52.8276 127.709 53.2616C127.831 53.5856 127.955 53.9106 128.067 54.2406C128.141 54.5716 128.194 54.9036 128.248 55.2406C128.348 55.9136 128.412 56.5986 128.468 57.2876C128.546 58.3116 128.61 59.3446 128.652 60.3806L128.597 60.3866Z" fill="#6940A5"/>
<path fill-rule="evenodd" clip-rule="evenodd" d="M95.2556 58.0917C91.2586 58.7857 87.2606 59.4757 83.2796 60.2237L78.9426 61.1167C76.3986 61.6287 73.8346 62.1187 71.3576 62.7647L70.4266 63.0037L69.6376 63.2587L69.4456 63.3177L69.3486 63.3457C69.3406 63.3747 69.3376 63.4087 69.3326 63.4397L69.3136 63.6357L69.2886 63.9907L69.0866 67.8897C68.9816 70.2007 68.9176 72.5277 68.8786 74.8227C68.8306 77.7717 68.8526 80.7377 68.6096 83.6747C68.4806 85.5087 66.9176 83.1667 66.8916 79.7527C66.8896 76.7347 66.9196 73.7207 66.9996 70.7007C67.0336 69.1907 67.1076 67.6797 67.1916 66.1657L67.3336 63.8867L67.3556 63.5607C67.3446 63.3797 67.4316 63.2487 67.4686 63.0937C67.5726 62.8077 67.6396 62.4637 67.7856 62.2587L67.8096 62.2147L67.8156 62.2037L67.8186 62.1977C67.8456 62.2157 67.5966 62.0257 67.7046 62.1037L67.7256 62.0867L67.8116 62.0177L67.9826 61.8817C68.0936 61.7887 68.2006 61.6927 68.3786 61.6537L69.2136 61.3737C71.0536 60.8277 72.8506 60.4157 74.6806 59.9647C76.5056 59.5387 78.3376 59.0987 80.1626 58.7307C84.1756 57.9017 88.1986 57.1537 92.2196 56.4037C94.6936 55.9467 97.1706 55.4907 99.6436 55.0347C103.387 54.3357 107.156 53.6687 110.851 52.8787C113.724 52.2657 116.509 51.5307 119.315 50.8187C119.929 50.6537 120.531 50.4907 121.15 50.3237C123.462 49.7607 124.185 49.6497 124.84 50.0447C124.987 50.1317 125.171 50.2067 125.272 50.3057C125.616 50.6377 124.77 51.2377 123.084 51.8387C118.097 53.5147 112.735 54.7207 107.338 55.8157C103.329 56.6317 99.2966 57.3927 95.2716 58.1457L95.2556 58.0917Z" fill="#6940A5"/>
<path fill-rule="evenodd" clip-rule="evenodd" d="M76.6403 43.0243L86.9173 41.3343C88.1693 41.1293 89.4103 40.8653 90.6643 40.6793C92.8783 40.3513 95.0973 40.0443 97.3373 39.8023C98.4633 39.6953 99.5823 39.5903 100.741 39.5653L101.622 39.5663L102.177 39.6043C102.398 39.6203 102.594 39.6713 102.803 39.7133C103.329 39.6653 103.347 40.2173 103.512 40.5883C103.575 40.7773 103.675 41.0043 103.707 41.1603L103.807 41.5893C104.261 43.6213 104.35 45.6613 104.342 47.6413C104.341 50.1883 104.221 52.7003 104.207 55.1823C104.205 55.9543 103.912 55.8903 103.552 55.2463C103.189 54.6043 102.777 53.3553 102.718 51.8843C102.631 49.2833 102.611 46.7253 102.381 44.2923C102.317 43.6843 102.225 43.0893 102.108 42.5063C102.05 42.2173 101.967 41.9313 101.903 41.6533C101.891 41.5843 101.901 41.5693 101.888 41.5213C101.872 41.5133 101.856 41.5013 101.837 41.4963C101.825 41.4943 101.819 41.4913 101.814 41.4863L101.806 41.4803L101.709 41.4723C101.424 41.4673 101.125 41.4643 100.822 41.4723C100.207 41.4913 99.5773 41.5333 98.9443 41.5783C95.8973 41.8123 92.7283 42.4683 89.6123 43.0133L79.3083 44.8573L72.9633 46.0133C69.7603 46.6003 66.5333 47.1503 63.3563 47.7633C60.8843 48.2323 58.4863 48.8433 56.0283 49.2933C55.4883 49.3963 54.9613 49.5123 54.4113 49.5933C53.3933 49.7513 52.7093 49.7953 52.2223 49.7413C51.7303 49.6623 51.4363 49.5043 51.1873 49.2503C51.0743 49.1343 50.9303 49.0243 50.8603 48.9093C50.6293 48.5383 51.4053 48.0343 52.8493 47.6803C57.1343 46.6193 61.7043 45.7303 66.3123 44.8613C69.7353 44.2203 73.1773 43.5743 76.6243 42.9683L76.6403 43.0243Z" fill="#6940A5"/>
<path fill-rule="evenodd" clip-rule="evenodd" d="M49.7253 62.5834L49.6233 65.9114C49.6153 66.3174 49.6593 66.7204 49.6453 67.1254C49.5873 68.5564 49.5283 69.9944 49.4703 71.4224C49.4483 72.0574 49.4603 72.6984 49.4823 73.3314C49.4973 74.1484 49.6023 74.9644 49.3453 75.8124C49.2683 76.0754 48.9063 75.9774 48.5593 75.7294C48.2163 75.4794 47.8793 75.1124 47.8663 74.6594C47.8383 73.0674 47.7993 71.4194 47.9563 69.7604C48.0613 68.7654 47.9463 67.7344 47.9423 66.7174L47.9603 63.3574L47.9803 61.2874C47.9863 60.2414 48.0343 59.1904 48.0123 58.1504C48.0053 57.3414 47.8683 56.5474 47.8763 55.7364C47.8743 55.5584 47.8573 55.3834 47.8653 55.2034C47.9133 54.5304 48.0503 54.3234 48.4653 54.2224C48.5593 54.1984 48.6543 54.1654 48.7463 54.1564C49.0593 54.1254 49.3013 54.4144 49.3873 54.8834C49.5043 55.5824 49.6513 56.2984 49.6913 57.0274C49.7333 57.7534 49.7613 58.4984 49.7703 59.2414C49.8033 60.3484 49.7793 61.4644 49.7693 62.5814L49.7253 62.5834Z" fill="#6940A5"/>
<path fill-rule="evenodd" clip-rule="evenodd" d="M41.5812 54.4907L41.4572 58.9647C41.4472 59.5087 41.4942 60.0517 41.4782 60.5957C41.4082 62.5157 41.3382 64.4407 41.2682 66.3587C41.2422 67.2107 41.2572 68.0697 41.2852 68.9167C41.3072 70.0127 41.4332 71.0907 41.1482 72.2367C41.0602 72.5937 40.6532 72.4707 40.2642 72.1497C39.8832 71.8357 39.4922 71.3407 39.4762 70.7237C39.4312 68.5567 39.3872 66.3387 39.5692 64.1087C39.6892 62.7717 39.5642 61.3857 39.5632 60.0187L39.5932 55.5087L39.6182 52.7307C39.6232 51.3287 39.6742 49.9197 39.6452 48.5257C39.6252 47.4417 39.4762 46.3787 39.4692 45.2957C39.4662 45.0567 39.4472 44.8227 39.4552 44.5817C39.4932 43.6847 39.6652 43.3907 40.1282 43.2467C40.2352 43.2137 40.3422 43.1667 40.4462 43.1527C40.7972 43.1057 41.0682 43.4867 41.1612 44.1087C41.2992 45.0457 41.4752 46.0127 41.5232 46.9977C41.5812 47.9807 41.6092 48.9827 41.6292 49.9887C41.6672 51.4807 41.6432 52.9847 41.6312 54.4877L41.5812 54.4907Z" fill="#6940A5"/>
<path fill-rule="evenodd" clip-rule="evenodd" d="M68.8532 36.6991L62.0602 37.8331L59.5952 38.3201C56.6842 38.8231 53.7702 39.3271 50.8612 39.8301C49.5712 40.0621 48.2832 40.3441 47.0142 40.6281C45.3832 40.9951 43.7592 41.4251 42.0902 41.6081C41.0522 41.7291 42.0672 40.1501 43.9362 39.6851C47.2552 38.8921 50.5882 38.1701 53.9942 37.6401C56.0332 37.3361 58.1122 36.8111 60.1792 36.4051L67.0112 35.1261L71.2232 34.3721C73.3472 33.9851 75.4912 33.6441 77.5942 33.2281C79.2312 32.9121 80.8152 32.4841 82.4272 32.1201C82.7822 32.0391 83.1252 31.9411 83.4862 31.8731C84.8212 31.6211 85.2702 31.6901 85.6432 32.1941C85.7282 32.3081 85.8332 32.4191 85.8912 32.5391C86.0852 32.9441 85.5952 33.3821 84.6382 33.6581C81.8012 34.4881 78.7612 35.0241 75.7042 35.5691C73.4302 35.9601 71.1452 36.3531 68.8652 36.7451L68.8532 36.6991Z" fill="#6940A5"/>
<path fill-rule="evenodd" clip-rule="evenodd" d="M74.4387 29.3681C75.3047 29.2341 76.1717 29.0991 77.0347 28.9661C77.3487 28.9181 77.6527 28.8291 77.9677 28.7891C79.0747 28.6611 80.1907 28.5331 81.2957 28.4051C81.7867 28.3471 82.2727 28.2481 82.7597 28.1771C83.3847 28.0771 84.0007 27.9371 84.6807 28.0311C84.9037 28.0671 84.8547 28.3101 84.7087 28.5671C84.5617 28.8231 84.3147 29.1221 83.9737 29.2101C82.7657 29.5351 81.5177 29.7581 80.2307 29.8401C79.4597 29.8931 78.6947 30.1321 77.9277 30.2881C77.0857 30.4601 76.2417 30.6331 75.3987 30.8051C74.8827 30.9181 74.3687 31.0351 73.8687 31.1771L73.1627 31.3861C73.0807 31.4141 72.9947 31.4421 72.9217 31.4931C72.8377 31.5451 72.8817 31.6521 72.8647 31.7341L72.8607 31.8951L72.8637 32.1711C72.8757 32.7971 72.9987 33.4121 73.1017 34.0091C73.1257 34.1391 73.1697 34.2671 73.1697 34.3931C73.1707 34.6311 73.1617 34.7671 73.0507 34.8751C72.9037 34.9751 72.7367 35.0551 72.5327 35.1371C72.4387 35.1771 72.3557 35.2301 72.2747 35.2681C72.1367 35.3321 71.9997 35.3351 71.8117 35.2361C71.6337 35.1451 71.3827 34.9851 71.3367 34.7731C71.0967 34.2151 71.0667 33.6791 71.0437 33.1421C71.0367 32.8741 71.0417 32.6071 71.0517 32.3431L71.0727 31.9491L71.0877 31.6551C71.0937 31.5221 71.1027 31.3901 71.1197 31.2621C71.1287 31.0701 71.1837 30.9081 71.2417 30.7481C71.4517 30.6461 71.3787 30.3731 71.5847 30.2811C71.7247 30.1451 71.9197 30.0471 72.1057 29.9531C72.3087 29.8791 72.5077 29.7911 72.7157 29.7341L73.0987 29.6271C73.5517 29.5111 73.9907 29.4191 74.4277 29.3291L74.4387 29.3681Z" fill="#6940A5"/>
<path fill-rule="evenodd" clip-rule="evenodd" d="M66.2233 42.2831C65.3713 42.3481 64.4963 42.4541 63.6273 42.5801C63.3093 42.6271 63.0013 42.7191 62.6833 42.7641C61.5603 42.9241 60.4313 43.0821 59.3123 43.2791C58.8153 43.3661 58.3263 43.4991 57.8373 43.6091C57.2113 43.7611 56.5953 43.9511 55.9233 43.9541C55.7083 43.9531 55.6983 43.7091 55.8103 43.4291C55.9233 43.1521 56.1583 42.8161 56.5063 42.6931C57.7363 42.2381 59.0153 41.9321 60.3433 41.7861C61.1373 41.6961 61.9223 41.4311 62.7183 41.2631C63.5943 41.0811 64.4753 40.9191 65.3693 40.7781L66.2003 40.6591C66.4183 40.6351 66.9403 40.5531 67.3003 40.5641C67.5623 40.5641 67.8023 40.6001 67.9833 40.7381C68.2033 40.8541 68.2073 41.1181 68.2913 41.3531C68.4213 42.1031 68.4883 42.4521 68.5933 42.9261C68.7363 43.5541 68.9853 44.1521 69.1853 44.7781C69.2293 44.9161 69.2933 45.0501 69.3083 45.1961C69.3413 45.4671 69.3393 45.6581 69.2313 45.8031C69.0813 45.9551 68.9133 46.0421 68.6913 46.1081C68.5913 46.1361 68.4973 46.1651 68.4113 46.1721C68.2633 46.1841 68.1293 46.1271 67.9663 46.0681C67.8063 46.0011 67.5673 45.8951 67.5143 45.7281C66.9873 44.7311 66.8693 43.5461 66.6993 42.3741C66.6783 42.2851 66.7053 42.3441 66.6893 42.3301C66.7073 42.3191 66.7073 42.3081 66.7033 42.2971C66.7013 42.2911 66.6953 42.2871 66.6883 42.2811L66.2313 42.3231L66.2233 42.2831Z" fill="#6940A5"/>
<path fill-rule="evenodd" clip-rule="evenodd" d="M113.598 101.562C111.645 101.999 109.689 102.388 107.733 102.766C107.019 102.903 106.319 103.101 105.602 103.223C104.339 103.439 103.071 103.635 101.797 103.81C101.16 103.896 100.522 103.983 99.8773 104.05L98.9023 104.132L98.4043 104.162C98.2623 104.159 97.9433 104.191 97.7293 104.175C97.5173 104.171 97.3163 104.144 97.1263 104.083C97.0793 104.069 97.0273 104.054 96.9843 104.032L96.8873 103.916L96.6933 103.684C96.4563 103.369 96.2583 102.934 96.1543 102.572C95.9633 101.941 95.9003 101.318 95.8773 100.722C95.8553 99.9574 95.8693 99.2154 95.9393 98.4994C96.0153 97.7844 96.1283 97.0944 96.1913 96.4194C96.2313 96.0054 96.5393 95.9944 96.9173 96.3584C97.2903 96.7174 97.7153 97.4974 97.7623 98.3484C97.8203 99.1004 97.7483 99.8124 97.7943 100.469C97.8133 100.794 97.8343 101.114 97.8883 101.396C97.9073 101.545 97.9443 101.675 97.9763 101.806C97.9893 101.874 98.0113 101.933 98.0343 101.99C98.0623 102.053 98.0273 102.017 98.0383 102.033C98.0363 102.047 98.0253 102.092 98.0473 102.112C98.0573 102.122 98.0703 102.131 98.0873 102.14C98.0663 102.149 98.1623 102.141 98.2503 102.134L98.5053 102.111C99.1973 102.042 99.9213 101.959 100.652 101.91C102.402 101.768 104.18 101.291 105.944 100.936C107.886 100.542 109.829 100.139 111.76 99.6914C112.949 99.4154 114.136 99.1334 115.307 98.8074C117.07 98.3044 118.885 97.8134 120.466 97.0474C120.616 96.9724 120.763 96.8934 120.897 96.8094C121.011 96.7404 121.068 96.6934 121.145 96.6274C121.214 96.5634 121.281 96.4984 121.318 96.4144C121.358 96.3284 121.325 96.2264 121.32 96.1384L121.301 96.0074L121.282 95.7614L121.233 95.2504L121.105 94.2424C121.061 93.9504 120.992 93.6684 120.944 93.3874C120.793 92.3334 120.936 92.1104 121.41 91.6564C121.512 91.5464 121.616 91.4354 121.715 91.3284C122.033 90.9484 122.773 91.3624 123.167 92.3134C123.465 93.0014 123.556 93.6984 123.658 94.3874C123.702 94.7334 123.731 95.0794 123.752 95.4284L123.773 95.9514L123.776 96.0944C123.767 96.1724 123.77 96.2524 123.767 96.3324C123.758 96.4894 123.771 96.6554 123.744 96.8074C123.696 97.4274 123.355 98.0004 122.836 98.3824C122.596 98.5754 122.281 98.7774 122.044 98.9034C121.863 99.0054 121.691 99.0904 121.517 99.1754C120.832 99.4994 120.171 99.7474 119.508 99.9774C117.545 100.652 115.574 101.116 113.616 101.616L113.598 101.562Z" fill="#202020"/>
<path fill-rule="evenodd" clip-rule="evenodd" d="M25.6291 90.4242C25.6291 90.4242 20.5251 88.9242 17.4111 91.3602C14.6471 93.5232 25.8881 104.758 48.9071 108.703L26.1181 94.8732L25.6291 90.4242Z" fill="#202020"/>
<path fill-rule="evenodd" clip-rule="evenodd" d="M110.342 76.7778L100.272 79.0658L96.6155 79.9668L83.6865 82.9938C81.7755 83.4448 79.8645 83.9438 77.9825 84.4458C75.5545 85.0518 73.1355 85.7408 70.6715 86.1858C69.9095 86.3398 69.9785 86.2338 70.5645 85.8908C70.8585 85.7148 71.2815 85.4798 71.7955 85.2138C72.3065 84.9328 72.9215 84.6528 73.6115 84.4388C76.0455 83.6298 78.4905 82.8738 80.9685 82.2208C83.4395 81.5378 85.9305 80.9138 88.4515 80.3658C91.4645 79.6958 94.5515 78.8138 97.6135 78.0488L107.725 75.5808L113.955 74.0908C117.098 73.3318 120.266 72.6098 123.379 71.8248C125.799 71.2148 128.151 70.5268 130.535 69.8838C131.06 69.7408 131.571 69.5868 132.104 69.4578C133.095 69.2318 133.762 69.1448 134.25 69.1738C134.736 69.1878 135.032 69.2778 135.291 69.4378C135.409 69.5108 135.558 69.5728 135.633 69.6478C135.885 69.8898 135.144 70.3648 133.752 70.9378C129.551 72.3088 125.044 73.4078 120.505 74.4738C117.13 75.2548 113.74 76.0378 110.357 76.8198L110.342 76.7778Z" fill="#6940A5"/>
<path fill-rule="evenodd" clip-rule="evenodd" d="M87.9011 47.7236C88.4411 47.6566 88.9831 47.5896 89.5201 47.5236C89.7161 47.4966 89.9071 47.4416 90.1041 47.4186C90.7971 47.3406 91.5021 47.2616 92.1891 47.1836C92.4971 47.1506 92.8021 47.0896 93.1021 47.0256C93.4871 46.9416 93.8671 46.8246 94.2721 46.8446C94.5241 46.8516 94.3611 47.6406 93.9251 47.7756C93.1471 47.9836 92.3661 48.1786 91.5431 48.1946C91.0521 48.2126 90.5671 48.3586 90.0771 48.4406C89.5411 48.5246 88.9991 48.6106 88.4601 48.6956C88.1271 48.7486 87.7921 48.8026 87.4621 48.8546C86.9021 48.9466 86.4331 48.9316 85.9261 49.0296C85.5411 49.0946 85.1721 49.2236 84.7961 49.3276C84.7131 49.3506 84.6331 49.3836 84.5491 49.4006C84.2371 49.4656 84.1261 49.4086 84.0151 49.1296C83.9901 49.0666 83.9601 49.0046 83.9411 48.9396C83.8771 48.7226 83.9781 48.5186 84.2011 48.4196C84.8601 48.1226 85.5811 47.9886 86.3221 47.8916C86.5871 47.8516 86.9171 47.8396 87.1021 47.8186L87.8951 47.6976L87.9011 47.7236Z" fill="#6940A5"/>
<path fill-rule="evenodd" clip-rule="evenodd" d="M84.4958 53.6386C85.4618 53.4896 86.4288 53.3406 87.3918 53.1926C87.7448 53.1246 88.0888 53.0586 88.4418 52.9916C89.6808 52.7896 90.9278 52.5866 92.1628 52.3856C92.7138 52.2946 93.2608 52.1736 93.7998 52.0496C94.4918 51.8886 95.1798 51.6936 95.8938 51.6336C96.3378 51.5906 95.9528 52.4386 95.1628 52.6646C93.7558 53.0336 92.3438 53.3836 90.8798 53.5456C90.0058 53.6526 89.1228 53.8856 88.2408 54.0496L85.3258 54.5596L83.5308 54.8646C82.6258 55.0226 81.7118 55.1606 80.8178 55.3386C80.1228 55.4786 79.4528 55.6756 78.7708 55.8466C78.6218 55.8846 78.4708 55.9236 78.3228 55.9616C77.7578 56.0796 77.5638 56.0396 77.3918 55.7746C77.3528 55.7136 77.3058 55.6556 77.2778 55.5926C77.1848 55.3806 77.3848 55.1566 77.7878 55.0176C78.9858 54.6106 80.2758 54.3466 81.5768 54.1046C82.5448 53.9416 83.5178 53.7766 84.4898 53.6126L84.4958 53.6386Z" fill="#6940A5"/>
<path fill-rule="evenodd" clip-rule="evenodd" d="M1.71994 47.6953C2.32594 46.9613 3.31794 46.7793 3.93594 47.2893C6.99594 49.8153 -1.43706 51.5173 1.71994 47.6953Z" stroke="#202020" stroke-width="1.2"/>
<path fill-rule="evenodd" clip-rule="evenodd" d="M9.06314 63.8281C9.66914 63.0941 10.6621 62.9121 11.2791 63.4221C14.3401 65.9481 5.90614 67.6501 9.06314 63.8281Z" stroke="#202020" stroke-width="1.2"/>
<path fill-rule="evenodd" clip-rule="evenodd" d="M21.4738 56.9062C22.0798 56.1732 23.0728 55.9902 23.6898 56.5002C26.7498 59.0262 18.3168 60.7282 21.4738 56.9062Z" fill="#202020"/>
</svg>
