<svg width="148" height="148" viewBox="0 0 148 148" fill="none" xmlns="http://www.w3.org/2000/svg">
<path fill-rule="evenodd" clip-rule="evenodd" d="M55.4122 77.7352C54.8512 80.7322 55.8742 84.0282 58.1762 86.0462C58.9952 86.8212 60.0462 87.3042 61.0932 87.7292C62.9682 88.4302 65.0942 88.6632 67.1022 88.2202C69.1072 87.7922 70.9932 86.7672 72.3782 85.2242C73.5922 83.8272 74.4002 82.0642 74.6342 80.2472C74.9502 77.8982 74.3772 75.5532 73.3322 73.5002C73.0072 72.8682 73.5212 72.5242 74.4172 72.7772C75.2992 73.0112 76.5542 74.0512 76.9632 75.7362C77.7002 78.6672 77.2602 81.8322 75.8222 84.4542C75.1182 85.7782 74.1372 86.9142 73.0122 87.9102C71.8282 88.8252 70.5302 89.5872 69.1192 90.0062C65.8032 91.0202 61.9902 91.0052 58.8212 89.3082C57.0982 88.3972 55.5992 87.0222 54.5872 85.3482C53.5872 83.6702 52.9882 81.7882 52.9222 79.8652C52.8042 77.5002 53.4412 75.1572 54.5672 73.1392C56.2872 70.0872 59.2352 67.7062 62.6812 66.9222C65.3372 66.2902 68.2502 66.7212 70.6102 68.1482C71.1102 68.4762 71.6432 68.7622 72.0912 69.1672C73.7942 70.6342 74.0192 71.3822 73.8092 72.1102C73.7582 72.2792 73.7252 72.4712 73.6442 72.6042C73.5072 72.8282 73.2242 72.8362 72.8552 72.6682C72.4872 72.4992 72.0442 72.1432 71.4972 71.6992C71.1162 71.3402 70.6722 71.0692 70.2692 70.7512C69.8282 70.4922 69.4122 70.1932 68.9522 69.9892C68.0552 69.5422 67.1172 69.2052 66.1502 69.0822C64.2252 68.8092 62.2142 69.2702 60.4772 70.3372C57.8902 71.9002 55.9292 74.7102 55.4722 77.7402L55.4122 77.7352Z" fill="#F9F9F7"/>
<path fill-rule="evenodd" clip-rule="evenodd" d="M43.9957 77.3959C43.6127 80.4509 43.9777 83.5749 44.9577 86.5039C45.8917 89.4469 47.6017 92.0959 49.8267 94.2299C51.4707 95.7709 53.4007 97.0029 55.4707 97.9199C62.7327 101.253 71.9927 100.489 78.4197 95.4579C81.2677 93.2579 83.4597 90.1879 84.7827 86.8729C86.4967 82.5819 86.7057 77.8299 85.8447 73.3379C85.5547 71.9489 86.1837 71.9009 87.1017 72.9929C87.9837 74.0689 89.0927 76.4669 88.9577 79.4489C88.8017 84.6869 86.8237 89.8489 83.4777 93.8669C80.1517 97.9559 75.3037 100.685 70.2217 101.657C64.1677 102.864 57.4127 102.05 51.9577 98.7529C48.9847 96.9529 46.4037 94.4429 44.6447 91.4339C43.7657 89.9359 43.0317 88.3419 42.5527 86.6849C42.2497 85.8749 42.1227 85.0129 41.9097 84.1789C41.7687 83.3289 41.6307 82.4739 41.5637 81.6159C41.3677 79.4999 41.5417 77.3669 41.9187 75.2929C42.2957 73.2139 42.9587 71.1949 43.8597 69.2959C45.1817 66.3959 47.0837 63.7769 49.3497 61.5519C51.6017 59.3089 54.2957 57.5269 57.2107 56.2969C61.7287 54.3789 66.9117 53.9789 71.6337 55.5499C72.6867 55.8519 73.6537 56.3049 74.6557 56.7619C78.2297 58.7359 78.9667 59.9289 79.2017 60.9129C79.2487 61.1469 79.3407 61.4179 79.3237 61.5969C79.2947 61.8979 78.9107 61.8649 78.2717 61.5569C77.9527 61.4019 77.5697 61.1779 77.1337 60.8889C76.6797 60.6249 76.1517 60.3259 75.5847 59.9579C73.8557 58.9459 72.0237 58.0999 70.0887 57.5799C68.1507 57.0829 66.1377 56.8839 64.1297 57.0259C60.1127 57.3009 56.1497 58.9479 52.9087 61.5559C48.1077 65.4149 44.6687 71.2129 44.0567 77.3949L43.9957 77.3959Z" fill="#F9F9F7"/>
<path fill-rule="evenodd" clip-rule="evenodd" d="M32.3595 75.0097C31.6525 79.8297 31.8685 84.8207 33.2885 89.5107C33.9975 91.8587 34.9125 94.1297 36.1225 96.2507C37.3165 98.3797 38.8265 100.322 40.5205 102.078C42.9885 104.664 46.0035 106.681 49.2015 108.272C54.8585 111.097 61.3435 112.225 67.6835 111.768C74.0315 111.31 80.2705 109.085 85.4005 105.294C89.9505 101.927 93.5015 97.2087 95.7185 92.0537C98.6025 85.4027 99.1305 77.8877 97.7555 70.8287C97.2845 68.6427 97.9415 68.7097 99.0135 70.4877C100.039 72.2487 101.338 75.9357 101.06 80.4327C100.88 84.3947 99.9575 88.3017 98.5115 91.9877C97.0195 95.6577 94.9285 99.0837 92.3595 102.094C89.7465 105.089 86.6245 107.645 83.1555 109.566C79.6725 111.455 75.9055 112.825 72.0115 113.474C69.6915 113.903 67.3125 114.098 64.9225 114.101C62.5345 114.105 60.1265 113.927 57.7555 113.482C55.3825 113.049 53.0405 112.409 50.7775 111.546C48.5265 110.656 46.3615 109.549 44.3415 108.231C39.8805 105.352 36.1925 101.296 33.6755 96.6347C31.1455 91.9637 29.8485 86.7247 29.6305 81.4647C29.5385 78.2307 29.7885 74.9687 30.5725 71.8287C31.3325 68.6877 32.4695 65.6487 33.9325 62.7777C36.2105 58.4607 39.2545 54.5477 42.8765 51.2817C46.5445 48.0747 50.7775 45.4957 55.3675 43.9057C58.9355 42.6837 62.6895 42.0477 66.4435 42.1447C70.1955 42.2357 73.9235 43.0617 77.3905 44.5257C77.7735 44.6857 78.1675 44.8167 78.5365 44.9967L79.6345 45.5557C80.3545 45.9487 81.1275 46.2647 81.8125 46.7427C84.4565 48.3677 85.9485 49.7717 86.9935 50.7357C87.9435 51.8027 88.3915 52.5147 88.6345 53.1907C88.7445 53.4987 88.9205 53.8697 88.9375 54.0887C88.9665 54.4597 88.4645 54.2907 87.5645 53.6797C87.1135 53.3737 86.5635 52.9567 85.9275 52.4387C85.2805 51.9327 84.4815 51.4077 83.6355 50.7577C81.0495 48.9477 78.2885 47.2957 75.2615 46.2717C72.2605 45.2047 69.0865 44.5907 65.8715 44.5467C59.4215 44.4047 52.9635 46.7427 47.6125 50.5667C43.5945 53.3797 40.2215 57.1027 37.5745 61.2587C34.9735 65.4447 33.1685 70.1467 32.4205 75.0067L32.3595 75.0097Z" fill="#F9F9F7"/>
<path fill-rule="evenodd" clip-rule="evenodd" d="M22.3092 74.4271C21.4942 80.5841 21.8312 86.9401 23.6712 92.9081C24.5822 95.8961 25.7592 98.7861 27.2892 101.498C28.8272 104.204 30.7222 106.698 32.8632 108.957C34.3992 110.637 36.1812 112.07 37.9872 113.448C39.8512 114.752 41.7712 115.985 43.8152 116.995C58.1172 124.379 76.5422 123.601 90.0542 114.538C96.0512 110.553 100.842 104.813 104.058 98.4491C108.169 90.2231 109.56 80.7721 108.429 71.6901C108.024 68.8741 108.688 69.0771 109.707 71.4371C110.194 72.6211 110.7 74.3661 111.022 76.5351C111.297 78.7001 111.427 81.2931 111.072 84.0671C109.876 93.9001 105.449 103.304 98.5922 110.471C95.1812 114.087 91.0712 117.005 86.6622 119.251C82.2402 121.5 77.4332 122.913 72.5562 123.67C69.6292 124.078 66.6492 124.277 63.6522 124.225C60.6552 124.132 57.6512 123.803 54.6832 123.22C48.7682 121.996 42.9842 119.736 37.9912 116.31C35.2452 114.443 32.6882 112.278 30.4562 109.809C28.2322 107.335 26.3122 104.594 24.7372 101.671C21.5732 95.8141 19.9132 89.2531 19.5792 82.6551C19.1382 74.5091 21.0902 66.3641 24.6082 59.0901C27.3522 53.6021 31.0642 48.6021 35.4912 44.3641C39.9452 40.1541 45.1772 36.7841 50.8252 34.4991C55.2322 32.7611 59.8912 31.7371 64.5932 31.5791C69.2932 31.4151 74.0192 32.1361 78.4812 33.6811C78.9752 33.8471 79.4652 34.0121 79.9552 34.1771C80.4432 34.3461 80.9012 34.5851 81.3762 34.7851C82.3112 35.2181 83.2762 35.6021 84.2012 36.0951C90.9982 39.9061 92.5032 42.0621 93.3612 43.5291C93.5462 43.8811 93.8192 44.3081 93.8832 44.5551C93.9892 44.9721 93.3852 44.7521 92.2362 44.0051C91.6622 43.6321 90.9512 43.1261 90.1222 42.5001C89.2552 41.9261 88.2492 41.2591 87.1182 40.5101C83.7122 38.3971 80.0742 36.5381 76.1522 35.4371C72.2442 34.3281 68.1442 33.8181 64.0372 34.0121C59.9312 34.2011 55.8302 35.0821 51.9362 36.5791C48.0502 38.1011 44.3752 40.2151 41.0372 42.7771L40.0992 43.4801C39.7932 43.7231 39.5062 43.9911 39.2092 44.2451L37.4372 45.7881L35.7762 47.4531C35.2152 48.0011 34.6692 48.5641 34.1732 49.1741L32.6372 50.9591C32.1532 51.5771 31.6972 52.2181 31.2242 52.8451C30.2412 54.0751 29.4782 55.4561 28.6082 56.7651C27.0702 59.5011 25.6162 62.3101 24.6232 65.2951C24.0362 66.7571 23.6842 68.2901 23.2502 69.7991C23.0282 70.5531 22.9342 71.3361 22.7682 72.1021C22.6392 72.8751 22.4232 73.6361 22.3702 74.4201L22.3092 74.4271Z" fill="#F9F9F7"/>
<path fill-rule="evenodd" clip-rule="evenodd" d="M90.527 63.6962C88.414 64.9972 86.305 66.3112 84.215 67.6542C83.453 68.1452 82.746 68.7122 81.981 69.1962L73.874 74.3242C72.681 75.0922 71.538 75.9422 70.418 76.7922C68.986 77.8872 67.609 79.0952 65.991 79.9062C65.504 80.1482 65.124 79.5832 65.103 78.7532C65.088 77.9232 65.386 76.8472 66.202 76.1932C69.103 73.8892 72.083 71.7042 75.34 69.8492C77.293 68.7482 79.092 67.2772 80.981 65.9982C83.059 64.5932 85.162 63.2242 87.262 61.8492L91.146 59.3232C93.097 58.0342 95.098 56.7982 96.997 55.4602C98.483 54.4292 99.834 53.2602 101.278 52.1802C101.596 51.9422 101.883 51.6762 102.22 51.4562C103.481 50.6622 104.013 50.6252 104.734 51.2292C104.899 51.3662 105.081 51.4912 105.219 51.6442C105.682 52.1612 105.464 52.9632 104.686 53.7092C102.36 55.9042 99.66 57.8342 96.862 59.6812C94.773 61.0382 92.673 62.4032 90.578 63.7632L90.527 63.6962Z" fill="#F9F9F7"/>
<path fill-rule="evenodd" clip-rule="evenodd" d="M107.953 60.4262C103.819 61.6162 96.0753 57.8352 96.0753 57.8352C96.0753 57.8352 94.6493 48.3332 98.4643 45.1382C99.0023 44.6882 102.906 41.5982 105.461 40.7012C106.446 40.3562 103.935 50.5772 105.165 51.5122C105.165 51.5122 114.235 52.7142 115.796 54.3742L107.953 60.4262Z" fill="#D9730D"/>
<path fill-rule="evenodd" clip-rule="evenodd" d="M103.567 46.724C103.799 45.178 104.182 42.773 104.163 43.095C104.172 43.021 104.211 42.917 104.168 42.848C104.104 42.851 104.035 42.873 103.962 42.897C103.888 42.922 103.809 42.954 103.726 42.992C103.69 43.011 103.72 42.99 103.632 43.039L103.372 43.189L102.853 43.501C101.846 44.123 100.896 44.86 99.932 45.562L99.312 46.025C99.137 46.171 99.015 46.311 98.857 46.45C98.692 46.569 98.593 46.784 98.454 46.948C98.314 47.111 98.202 47.309 98.1 47.519C97.651 48.32 97.35 49.278 97.153 50.27C96.737 52.255 96.688 54.388 96.806 56.482L96.837 56.949L96.868 57.258L97.111 57.375L97.436 57.517C97.771 57.664 98.11 57.799 98.449 57.932C99.13 58.195 99.817 58.434 100.505 58.647C102.777 59.32 105.164 59.767 107.27 59.687C107.894 59.644 108.087 60.234 107.525 60.965C106.977 61.705 105.511 62.368 103.97 62.123C102.414 61.894 100.953 61.485 99.536 60.994C98.826 60.753 98.135 60.475 97.446 60.188L96.424 59.734L95.579 59.335L94.65 58.877C94.583 58.362 94.524 57.85 94.475 57.336L94.444 56.987L94.433 56.776L94.411 56.355C94.39 55.794 94.387 55.231 94.394 54.67C94.416 53.545 94.512 52.414 94.691 51.285C94.958 49.71 95.284 48.076 96.074 46.485C96.444 45.686 97.035 44.936 97.737 44.286C98.384 43.755 98.998 43.297 99.648 42.838C100.358 42.34 101.081 41.859 101.829 41.403L102.396 41.066C102.602 40.95 102.972 40.727 103.252 40.594C103.846 40.296 104.474 39.966 105 39.858C105.26 39.812 105.528 39.755 105.714 39.804C105.818 39.82 105.918 39.814 106.025 39.847C106.143 39.893 106.239 40.008 106.292 40.096C106.526 40.462 106.629 40.955 106.628 41.58C106.625 42.202 106.525 42.884 106.441 43.537L106.244 44.846C106.085 45.878 105.921 46.902 105.797 47.918C105.734 48.425 105.681 48.931 105.65 49.425C105.636 49.652 105.629 49.961 105.629 50.105C105.631 50.238 105.632 50.374 105.658 50.508C105.681 50.654 105.744 50.854 105.929 50.829L107.683 51.141L109.809 51.564C110.516 51.714 111.221 51.879 111.925 52.052C112.657 52.258 113.223 52.361 114.274 52.761L114.878 52.987L115.403 53.267C115.772 53.447 116.059 53.668 116.389 53.887C116.545 54.013 116.728 54.139 116.865 54.266L116.498 54.659L115.759 55.461L114.719 56.321L113.858 57.045L112.482 58.217C112.076 58.56 111.693 58.913 111.276 59.249C109.731 60.494 109.132 60.751 108.403 60.504C108.237 60.448 108.047 60.411 107.913 60.329C107.46 60.053 107.85 59.235 108.911 58.232C109.697 57.489 110.51 56.754 111.343 56.028L112.606 54.943L112.753 54.818L112.761 54.801L112.773 54.77C112.779 54.753 112.782 54.739 112.782 54.727C112.804 54.681 112.686 54.683 112.679 54.69L112.672 54.693C112.672 54.693 112.672 54.694 112.667 54.694C112.667 54.694 112.672 54.697 112.585 54.671C112.335 54.596 112.079 54.524 111.815 54.459C111.296 54.321 110.759 54.199 110.222 54.079C109.403 53.897 108.568 53.737 107.733 53.579L106.473 53.357L105.704 53.231L104.419 53.043C104.299 52.901 104.17 52.803 104.063 52.663C103.935 52.526 103.813 52.389 103.696 52.248C103.518 51.925 103.367 51.576 103.319 51.175C103.237 50.81 103.234 50.328 103.224 50.016C103.223 49.771 103.234 49.544 103.244 49.313C103.297 48.411 103.398 47.56 103.507 46.721L103.567 46.724Z" fill="#D9730D"/>
<path fill-rule="evenodd" clip-rule="evenodd" d="M25.2267 102.101C28.4197 108.215 33.3227 113.424 39.2427 117.078C41.3867 118.445 43.7277 119.458 46.0637 120.446C50.2337 122.088 54.6477 123.139 59.1337 123.575C63.6237 123.967 68.1767 123.736 72.6147 122.871C76.5537 122.103 80.3887 120.71 83.8977 118.85C86.1667 117.673 88.2727 116.213 90.3027 114.676C92.2697 113.059 94.2157 111.407 95.9677 109.549C97.0897 108.429 97.4417 108.963 96.9617 110.392C96.7087 111.094 96.3047 112.081 95.5607 113.06C95.2007 113.56 94.7857 114.087 94.3197 114.624C93.8267 115.13 93.2737 115.638 92.6777 116.141C84.0877 123.155 72.8467 126.559 61.8647 126.012C55.3057 125.674 48.4957 124.309 42.3887 121.442C35.6967 118.299 29.7937 113.414 25.6187 107.316C24.9267 106.412 24.4087 105.393 23.7967 104.438C23.2277 103.457 22.7477 102.425 22.2207 101.422C21.7817 100.378 21.3197 99.3405 20.9137 98.2855C20.5567 97.2125 20.1677 96.1505 19.8387 95.0715C17.9327 88.4935 17.5027 81.4785 18.5757 74.7845C18.9267 72.1695 19.5827 69.6375 20.2867 67.1275C21.1007 64.6545 21.9757 62.1925 23.1587 59.8555C23.6397 58.8055 24.1667 57.8085 24.7557 56.8045C26.9727 53.0985 28.0587 52.1685 29.0947 51.8265C29.3347 51.7505 29.6137 51.6235 29.7997 51.6205C30.1147 51.6145 30.0917 52.0195 29.7807 52.7325C29.4757 53.4525 28.8357 54.4465 28.0827 55.7615C25.7747 59.6055 23.7997 63.7755 22.4677 68.2085C21.1327 72.6365 20.3797 77.2955 20.3657 81.9745C20.3977 88.8965 21.9887 95.9345 25.2757 102.065L25.2267 102.101Z" fill="#F9F9F7"/>
<path fill-rule="evenodd" clip-rule="evenodd" d="M64.0744 81.307C63.2744 81.184 62.5944 80.367 62.6214 79.618C62.6364 78.877 63.0964 78.418 63.6024 78.265C63.9224 78.151 64.6244 78.57 64.7064 78.712C64.7614 78.871 64.8924 78.97 64.9884 78.95C64.9484 78.952 64.8984 78.962 64.8574 78.976C64.8494 78.976 64.8364 78.977 64.8214 78.984C64.7604 79.015 64.8294 78.978 64.8164 78.979C64.8094 78.984 64.8694 78.938 64.8834 78.901C64.9324 78.84 64.9674 78.744 64.9784 78.675C64.9894 78.606 64.9724 78.609 64.9884 78.644C64.9964 78.675 64.9944 78.617 64.8294 78.518C64.7694 78.476 64.7094 78.446 64.6514 78.426C64.6304 78.422 64.5884 78.405 64.5374 78.38L64.5194 78.366C64.5074 78.359 64.4864 78.328 64.4694 78.314C64.8254 78.338 65.1624 78.241 65.2264 78.184C65.3154 78.123 65.2534 78.146 65.2204 78.258C65.1804 78.371 65.1764 78.522 65.1924 78.671C65.2094 78.806 65.2494 78.971 65.3174 79.124C65.3494 79.208 65.3944 79.305 65.4364 79.368C65.4294 79.386 65.4154 79.409 65.4034 79.424C65.3554 79.419 65.4784 79.53 65.2724 79.281C65.2034 79.197 65.1244 79.115 65.0454 79.039C64.9944 78.975 64.9374 78.913 64.8754 78.856C64.8124 78.798 64.7424 78.743 64.6704 78.694C64.6294 78.655 64.5814 78.618 64.5294 78.585C64.3964 78.514 64.3524 78.484 64.2784 78.46C63.9854 78.409 64.3714 78.498 64.7184 78.182C65.0994 77.9 65.3364 77.478 65.3744 77.368C65.4234 77.234 65.3484 77.411 65.3624 77.647C65.3624 77.883 65.4564 78.094 65.4564 78.079C65.4564 78.079 65.3174 77.886 64.8874 77.673C64.8654 77.666 64.7264 77.592 64.7504 77.604L64.7514 77.598C64.7554 77.602 64.7554 77.577 64.7594 77.557C64.7714 77.531 64.7744 77.457 64.7844 77.389C64.8034 77.242 64.7994 77.021 64.7864 76.793C64.7374 76.672 64.7544 76.503 64.7004 76.459C64.6324 76.312 64.6294 76.314 64.5104 76.23C64.3944 76.169 64.1734 76.054 63.8634 75.938C63.3174 75.782 62.5344 75.859 61.9994 76.179C61.7254 76.328 61.5074 76.519 61.3724 76.705C61.2034 76.928 61.0344 77.247 60.9304 77.568C60.8624 77.786 60.7654 78.015 60.8704 78.273C60.9434 78.467 60.8564 79.55 61.1954 80.482C61.3714 80.939 61.5334 81.322 61.7624 81.6C61.9824 81.927 62.1504 82.067 62.1944 82.156C62.4314 82.535 62.7494 82.823 63.2984 82.992C63.8374 83.168 64.5854 83.164 65.3824 83.024C65.6094 83.001 65.8204 82.842 66.0944 82.936C66.7384 83.155 67.2214 82.837 67.7204 82.589C68.4374 82.248 69.1524 81.909 69.8964 81.556C70.2664 81.384 70.7304 81.328 71.1624 81.211C71.5574 81.109 71.7944 81.683 71.7334 81.822C71.5564 82.217 71.9824 82.235 72.1744 82.398C72.2394 82.455 72.3224 82.529 72.3514 82.593C72.3814 82.661 71.6174 83.777 70.6154 84.856C69.6474 85.967 68.2944 86.874 67.9904 86.998C67.9414 87 67.4694 87.281 66.6294 87.565C65.8164 87.868 64.6254 88.2 63.2344 88.204C61.8644 88.223 60.2824 87.836 59.2364 87.153C58.1724 86.518 57.5334 85.854 57.3454 85.646C56.8994 85.216 56.5924 84.634 56.3504 84.049C56.3244 83.98 56.0084 83.488 55.7024 82.728C55.3974 81.968 55.1334 80.943 55.0504 79.9C54.8254 77.805 55.5564 75.701 55.6494 75.559C56.0124 74.763 56.4334 73.977 57.0284 73.269C57.6994 72.507 58.5064 71.914 59.3794 71.659C59.7154 71.532 60.0324 71.398 60.3474 71.245C61.7184 70.658 63.2014 70.469 64.7414 70.73C65.1274 70.796 65.5104 70.874 65.9024 71.025C66.2884 71.141 66.6734 71.335 67.0494 71.551C67.4264 71.74 67.7764 72.064 68.1164 72.339C68.4264 72.668 68.7484 73.009 68.9824 73.391C69.2104 73.79 69.4624 74.193 69.5824 74.609C69.7374 75.027 69.8604 75.445 69.9034 75.843L69.9894 76.451C70.0054 76.641 70.0054 76.809 70.0114 76.99C70.0234 77.342 69.9994 77.727 69.9464 78.122C69.9044 78.411 69.7974 78.692 69.6794 78.996C69.5424 79.37 69.3394 79.752 69.1044 80.152C68.8084 80.669 68.3654 81.193 67.7914 81.566C67.2254 81.944 66.5734 82.168 65.9524 82.244C64.6984 82.377 63.6144 82.067 62.6164 81.385C62.1274 81.023 61.6214 80.543 61.2684 79.745C60.8924 78.969 60.9164 77.756 61.3494 76.988C61.7584 76.208 62.2624 75.816 62.6994 75.492C63.0964 75.21 63.6474 74.905 64.2834 74.745C64.5664 74.67 65.2044 74.568 66.0414 74.795C66.8684 74.992 67.8854 75.771 68.2444 76.751C68.6374 77.73 68.5094 78.589 68.3454 79.179C68.1674 79.806 67.8644 80.331 67.6544 80.611C67.4524 80.945 66.6764 81.475 65.8714 81.548C65.0674 81.649 64.3834 81.384 64.0744 81.307Z" fill="#F9F9F7"/>
<path fill-rule="evenodd" clip-rule="evenodd" d="M108.444 30.6932C108.553 30.8532 108.342 30.9862 107.945 31.1052C107.819 31.1422 107.434 31.1362 107.379 31.0902C107.272 31.0022 107.168 30.9122 107.092 30.8212C107.048 30.7652 106.839 29.8852 106.747 29.5862C106.659 29.2972 106.634 29.0072 106.623 28.7172L106.526 26.9502C106.52 26.8192 106.535 26.6882 106.571 26.5582C106.697 26.1102 106.682 25.6612 106.643 25.2122C106.637 25.1372 106.649 25.0612 106.578 24.9892C106.461 24.8702 106.456 23.6522 106.511 23.4952C106.648 23.1042 106.732 22.7122 106.84 22.3192C106.856 22.2642 106.828 22.2042 106.913 22.1532C107.109 22.0352 107.076 21.9142 107.091 21.7932C107.111 21.6252 107.142 21.4572 107.208 21.2892C107.24 21.2062 107.352 21.1242 107.442 21.0432C107.524 20.9682 107.819 21.0082 107.851 21.0342C107.944 21.1102 108.083 21.0492 108.206 21.0422C108.248 21.0392 108.301 21.0362 108.335 21.0402C108.41 21.0482 108.92 22.0132 108.916 22.1192C108.917 22.1302 108.957 22.4872 109 22.8662C109.045 23.2422 109.093 23.6342 109.113 23.7142C109.133 23.7982 109.087 23.8822 109.059 23.9662C109.047 24.0062 109.215 25.1332 109.21 25.1782C109.192 25.4122 109.257 25.6462 109.078 25.8792C109.043 25.9242 109.051 25.9722 109.054 26.0182C109.072 26.4202 108.995 26.8212 108.944 27.2232C108.917 27.4282 108.936 27.6332 108.929 27.8392C108.927 27.8752 108.902 27.9122 108.89 27.9492C108.875 27.9962 108.851 28.0432 108.852 28.0892C108.86 28.5752 108.76 29.0602 108.822 29.5462C108.835 29.6582 108.636 30.1922 108.66 30.3212C108.672 30.3932 108.4 30.6292 108.444 30.6932Z" fill="#F9F9F7"/>
<path fill-rule="evenodd" clip-rule="evenodd" d="M119.335 42.7435C119.288 42.9565 119.025 42.8805 118.607 42.6585C118.474 42.5865 118.172 42.2755 118.171 42.1915C118.169 42.0295 118.173 41.8665 118.203 41.7245C118.214 41.6185 118.935 40.7425 119.181 40.4395C119.417 40.1495 119.698 39.9135 119.99 39.7015C120.584 39.2675 121.174 38.8385 121.784 38.4375C121.919 38.3475 122.068 38.2805 122.227 38.2315C122.772 38.0635 123.25 37.7915 123.711 37.4805C123.789 37.4295 123.877 37.3945 123.92 37.2855C123.981 37.0965 125.326 36.3805 125.537 36.3555C126.036 36.2595 126.537 36.1755 127.054 36.1245C127.127 36.1175 127.189 36.0665 127.281 36.1265C127.491 36.2635 127.627 36.1885 127.779 36.1585C127.99 36.1155 128.208 36.0975 128.439 36.1165C128.553 36.1245 128.681 36.2025 128.799 36.2575C128.907 36.3075 128.917 36.5715 128.895 36.6085C128.828 36.7135 128.928 36.8145 128.961 36.9175C128.972 36.9525 128.987 36.9985 128.99 37.0285C128.974 37.0705 128.146 37.9665 128.048 38.0215C128.034 38.0335 127.685 38.2265 127.327 38.4745C126.966 38.7065 126.574 38.9285 126.503 38.9905C126.426 39.0495 126.316 39.0435 126.217 39.0595C126.167 39.0625 125.09 39.8035 125.045 39.8295C124.794 39.9315 124.599 40.1355 124.272 40.1065C124.209 40.1005 124.165 40.1365 124.12 40.1655C123.731 40.4245 123.292 40.5965 122.872 40.8045C122.655 40.9085 122.467 41.0565 122.267 41.1845C122.231 41.2065 122.18 41.2075 122.137 41.2215C122.084 41.2385 122.024 41.2465 121.98 41.2775C121.521 41.6015 121.002 41.8435 120.601 42.2365C120.514 42.3265 119.897 42.5305 119.81 42.6505C119.76 42.7125 119.354 42.6555 119.335 42.7435Z" fill="#F9F9F7"/>
<path fill-rule="evenodd" clip-rule="evenodd" d="M121.063 56.2523C120.85 56.2313 120.896 55.9463 121.104 55.5263C121.17 55.3933 121.469 55.0713 121.545 55.0523C121.696 55.0183 121.844 54.9833 121.969 54.9743C122.042 54.9803 122.871 55.3033 123.176 55.3513C123.463 55.4163 123.712 55.5283 123.958 55.6483C124.464 55.8803 124.962 56.1223 125.488 56.3253C125.605 56.3713 125.706 56.4463 125.806 56.5343C126.143 56.8463 126.556 57.0103 126.992 57.1053C127.065 57.1203 127.132 57.1583 127.228 57.0993C127.378 57.0123 128.544 57.3423 128.681 57.4473C129.018 57.7033 129.372 57.9233 129.721 58.1783C129.771 58.2133 129.839 58.2003 129.862 58.3143C129.917 58.5783 130.048 58.5753 130.164 58.6283C130.326 58.6983 130.484 58.7883 130.624 58.9443C130.694 59.0163 130.741 59.1693 130.797 59.2903C130.848 59.4013 130.73 59.6783 130.694 59.7053C130.592 59.7803 130.616 59.9383 130.59 60.0623C130.581 60.1053 130.569 60.1603 130.557 60.1933C130.543 60.2263 130.246 60.3523 129.934 60.4843C129.631 60.5773 129.315 60.6603 129.262 60.6463C129.249 60.6443 128.867 60.6053 128.46 60.5643C128.066 60.5043 127.653 60.4433 127.548 60.4273C127.455 60.4233 127.384 60.3403 127.308 60.2803C127.274 60.2633 126.042 60.0413 125.995 60.0103C125.761 59.8983 125.484 59.8793 125.318 59.5923C125.286 59.5353 125.233 59.5263 125.183 59.5113C124.755 59.3693 124.374 59.1103 123.99 58.8663C123.794 58.7403 123.577 58.6553 123.372 58.5473C123.334 58.5273 123.312 58.4813 123.282 58.4483C123.244 58.4073 123.211 58.3563 123.165 58.3323C122.68 58.0693 122.282 57.6693 121.798 57.4033C121.68 57.3463 121.347 56.7833 121.221 56.7143C121.146 56.6763 121.147 56.2583 121.063 56.2523Z" fill="#F9F9F7"/>
</svg>
