<svg width="148" height="148" viewBox="0 0 148 148" fill="none" xmlns="http://www.w3.org/2000/svg">
<path fill-rule="evenodd" clip-rule="evenodd" d="M50.6303 44.8186L52.4903 44.0716C53.1033 43.8046 53.6983 43.4996 54.3053 43.2146C55.5273 42.6646 56.6923 41.9986 57.8603 41.3356C58.7283 40.8756 59.5053 40.2706 60.3383 39.7546C63.2443 37.8826 66.0383 35.8006 68.6263 33.4696C69.7583 32.4196 70.8903 31.3516 71.9243 30.2166C72.6083 29.5066 73.2493 28.7546 73.9063 28.0166C74.5573 27.2736 75.2763 26.5886 75.9893 25.8966C76.4433 25.4736 76.5753 25.6866 76.4613 26.2726C76.3263 26.8396 76.0523 27.8796 75.3383 28.7936C72.7353 31.9576 69.8313 34.9086 66.4963 37.3816C65.9993 37.7516 65.5083 38.1376 65.0163 38.5286C64.5113 38.9056 64.0033 39.2836 63.4943 39.6636C62.4983 40.4526 61.4323 41.1606 60.3783 41.8616C59.2293 42.6506 57.9823 43.2886 56.7873 44.0036C55.5453 44.6356 54.3083 45.2806 53.0393 45.8536C51.4583 46.5226 49.8863 47.2066 48.2513 47.7246C47.6363 47.9316 47.0293 48.1636 46.4063 48.3466L44.5253 48.8486C43.8963 49.0066 43.2773 49.2066 42.6453 49.3376L40.7493 49.7266C40.2603 49.8376 39.7753 49.9466 39.2893 50.0566C38.8043 50.1676 38.3133 50.2266 37.8263 50.3186C36.8503 50.4856 35.8753 50.6736 34.8893 50.8046C34.4533 50.8406 34.0283 50.8946 33.5873 50.9196C31.9513 51.0196 31.4243 50.8656 31.0753 50.3616C30.9963 50.2446 30.8923 50.1306 30.8463 50.0136C30.6933 49.6226 31.3443 49.2556 32.4933 49.0596C33.3483 48.9436 34.2093 48.8276 35.0763 48.7106C35.9383 48.5436 36.8073 48.3936 37.6853 48.2696C38.5673 48.1696 39.4393 47.9786 40.3153 47.7926C41.1883 47.5966 42.0833 47.4786 42.9493 47.2356C45.5373 46.5726 48.1283 45.8216 50.6093 44.7766L50.6303 44.8186Z" fill="#F9F9F7"/>
<path fill-rule="evenodd" clip-rule="evenodd" d="M54.5048 112.266C52.7298 110.048 51.4198 107.8 50.0778 105.481C48.7618 103.167 47.5638 100.797 46.4118 98.4154C45.5728 96.6764 44.7068 94.9544 43.9268 93.1964L35.8918 74.5714C34.7088 71.8134 33.4948 69.0474 32.3558 66.2904C31.6238 64.5194 30.8748 62.7504 30.1958 60.9514C29.8518 60.0544 29.5288 59.1474 29.2198 58.2384C28.9048 57.3304 28.7038 56.3834 28.4698 55.4504C28.2018 54.2784 28.5378 54.3384 29.2548 55.1564C29.6138 55.5644 30.0738 56.1594 30.5958 56.8864C31.0808 57.6254 31.5418 58.5284 31.9498 59.5414C33.3878 63.1414 34.9338 66.6974 36.4538 70.2814C37.9498 73.8824 39.4498 77.4914 40.9588 81.1214C42.7488 85.4774 44.8048 89.9264 46.8158 94.2724C49.0298 99.0494 51.3898 103.754 54.1958 108.179C55.8758 110.885 58.0578 113.191 60.5528 115.217C64.2978 118.312 68.6248 120.745 73.0258 122.768C76.4708 124.311 80.0038 125.46 83.5948 126.375C84.3858 126.571 85.1608 126.764 85.9578 126.961C88.9148 127.654 89.8268 127.984 90.4098 128.599C90.5428 128.736 90.7258 128.875 90.7998 128.994C90.9238 129.195 90.6668 129.32 90.0788 129.402C89.4958 129.472 88.5608 129.567 87.4198 129.377C83.9908 128.988 80.5698 128.046 77.2188 126.82C73.8638 125.596 70.5598 124.092 67.3808 122.324C62.7058 119.636 58.1508 116.531 54.4688 112.306L54.5048 112.266Z" fill="#F9F9F7"/>
<path fill-rule="evenodd" clip-rule="evenodd" d="M116.484 84.1326C116.138 88.2656 115.863 92.4126 115.673 96.5576C115.619 97.3216 115.672 98.0396 115.566 98.8886C115.449 99.7096 115.366 100.556 115.112 101.309C113.527 106.763 110.351 111.284 107.016 115.523C105.525 117.405 103.957 119.238 102.339 120.987C100.248 123.212 98.0528 125.404 95.4518 127.089C94.6408 127.614 94.5128 127.186 94.8878 126.362C95.2718 125.548 96.1018 124.311 97.3198 123.119C101.611 118.859 105.677 114.293 109.133 109.256C109.633 108.493 110.15 107.725 110.575 106.905C110.795 106.5 111.024 106.095 111.233 105.681L111.808 104.417C112.219 103.58 112.464 102.694 112.79 101.832C113.004 100.953 113.296 100.07 113.379 99.2106C113.462 98.7316 113.534 98.2796 113.527 97.7466L113.585 96.1686L113.725 93.0156C113.828 90.9156 113.954 88.8156 114.089 86.7176C114.259 84.1346 114.47 81.5536 114.683 78.9756C115.026 75.0696 115.48 71.1546 115.951 67.2846C116.38 64.2816 116.683 61.3176 117.378 58.3526C117.521 57.6996 117.626 57.0526 117.856 56.4026C118.693 54.0156 119.402 53.3706 119.954 53.0826C120.09 53.0176 120.238 52.9196 120.345 52.9016C120.714 52.8526 120.494 53.8606 120.103 55.5226C119.031 60.5826 118.374 66.0966 117.708 71.6546C117.242 75.7856 116.845 79.9576 116.54 84.1316L116.484 84.1326Z" fill="#F9F9F7"/>
<path fill-rule="evenodd" clip-rule="evenodd" d="M102.665 33.929C101.63 33.518 100.606 33.094 99.6159 32.598C98.6059 32.145 97.6399 31.611 96.6699 31.09C95.9529 30.729 95.2489 30.345 94.5609 29.934C92.1639 28.435 89.8839 26.777 87.7389 24.974C86.7679 24.2 85.8269 23.379 84.8699 22.604L83.0729 21.047C82.5009 20.497 81.9569 19.917 81.4659 19.293C80.8519 18.522 82.9239 18.235 84.2409 19.388C86.6129 21.438 89.0409 23.381 91.4889 25.394C92.2159 26.006 93.0269 26.531 93.8599 27.029C94.6779 27.554 95.5519 27.987 96.3899 28.469C97.3029 29.016 98.2729 29.45 99.2109 29.951C100.177 30.391 101.14 30.848 102.126 31.241L103.96 31.942C104.577 32.161 105.207 32.337 105.831 32.533C106.771 32.85 107.749 33.027 108.71 33.27C109.678 33.484 110.663 33.596 111.634 33.73C112.397 33.773 113.155 33.766 113.904 33.77C114.655 33.755 115.401 33.662 116.146 33.626C116.475 33.612 116.794 33.564 117.122 33.52C118.34 33.396 118.74 33.535 119.081 34.147C119.158 34.286 119.256 34.424 119.31 34.565C119.492 35.042 119.018 35.49 118.069 35.724C116.666 36.109 115.182 36.22 113.677 36.278C112.926 36.27 112.17 36.213 111.411 36.164C110.659 36.067 109.907 35.946 109.154 35.827C108.04 35.635 106.946 35.336 105.853 35.055C104.784 34.695 103.687 34.415 102.648 33.986L102.665 33.929Z" fill="#F9F9F7"/>
<path fill-rule="evenodd" clip-rule="evenodd" d="M62.9242 65.7786C61.5152 70.9226 62.6202 76.6266 65.5192 81.2196C66.5682 82.9086 67.8912 84.4156 69.3242 85.7886C71.8782 88.1746 74.9552 90.0806 78.3442 90.9766C81.7132 91.9426 85.3532 91.7986 88.6622 90.6116C91.5642 89.4906 94.2232 87.5516 96.2392 85.2016C98.8262 82.1176 100.255 78.2486 100.82 74.3016C100.946 73.0686 101.397 73.1756 101.887 74.3186C102.114 74.8906 102.332 75.7306 102.392 76.7656C102.481 77.8026 102.335 79.0216 101.897 80.2496C101.139 82.4326 100.002 84.4716 98.5702 86.2876C97.8592 87.1946 97.0512 88.0496 96.1852 88.8016L94.8752 89.9146L93.4572 90.9046C91.5082 92.1436 89.3372 93.0756 87.0602 93.5626C84.7852 94.0536 82.4232 94.0946 80.1532 93.7186C74.7342 92.7996 69.5512 89.9386 65.9292 85.7656C61.9212 81.2486 59.5452 75.1576 59.9712 69.0716C60.2262 65.3306 61.4632 61.7386 63.6362 58.6456C65.3702 56.3656 67.6512 54.6506 70.0652 53.2966C71.2732 52.6116 72.5332 52.0316 73.8222 51.5406C75.1082 51.0406 76.4222 50.6176 77.7632 50.3086C79.8422 49.8046 81.9662 49.5236 84.1152 49.5526C86.2602 49.5686 88.4492 49.9566 90.4982 50.8726C90.9482 51.0736 91.3772 51.3176 91.8122 51.5496C92.2182 51.8296 92.6582 52.0726 93.0372 52.4086C94.5152 53.5896 95.0932 54.7586 95.4212 55.5316C95.5682 55.9376 95.6752 56.2576 95.6932 56.5506C95.6942 56.8516 95.6502 57.1046 95.5972 57.3296C95.5472 57.5366 95.5292 57.7806 95.4742 57.9036C95.3782 58.1156 95.1222 57.9246 94.6602 57.4926C94.2012 57.0616 93.6652 56.3376 92.8802 55.5446C91.7152 54.3796 90.3602 53.4466 88.7922 52.8586C87.2352 52.2566 85.5012 52.0086 83.7432 51.9686C80.2142 51.9086 76.5382 52.7846 73.2012 54.3026C70.7412 55.4576 68.3982 56.9526 66.5822 58.8596C66.1342 59.3376 65.7202 59.8356 65.3462 60.3546C65.1662 60.6156 65.0082 60.8856 64.8342 61.1496L64.3882 62.0406L63.9402 62.9326L63.5832 63.8726C63.3212 64.4926 63.1552 65.1406 62.9842 65.7866L62.9242 65.7786Z" fill="#F9F9F7"/>
<path fill-rule="evenodd" clip-rule="evenodd" d="M95.1215 67.5891C93.7435 69.6071 92.5525 71.7881 91.4395 74.0321C91.0325 74.8521 90.7365 75.7211 90.3465 76.5561L89.3275 78.7931C88.7995 79.9741 88.2925 81.4361 87.5645 82.0711C87.3835 82.2281 87.2225 82.4001 86.9965 82.4531C86.9425 82.4711 86.8825 82.4881 86.8145 82.5011L86.7625 82.5061L86.7495 82.5081H86.7465C86.7425 82.4981 86.7655 82.6011 86.7545 82.5571H86.7485L86.7245 82.5561L86.6305 82.5551C86.5115 82.5431 86.3995 82.5261 86.2905 82.4901C85.8545 82.3371 85.3955 82.0921 84.9295 81.6861C84.4625 81.2831 84.0185 80.7551 83.6055 80.2551L83.0495 79.5901L82.6585 79.1041C81.7345 77.9581 80.7505 76.8721 79.7425 75.8581C79.0905 75.2121 78.4145 74.5981 77.7755 73.9821L77.2905 73.5331L77.0505 73.3171C77.0105 73.2801 76.9715 73.2451 76.9295 73.2141C76.9125 73.1481 76.8725 73.1131 76.8445 73.0611C76.7325 72.8521 76.5755 72.7051 76.4175 72.5821C76.2635 72.4511 76.1035 72.3271 75.9565 72.2431C75.6545 72.0601 75.5095 71.7121 76.1725 71.3991C76.5065 71.2571 76.9965 71.2071 77.5415 71.2551C77.8095 71.2891 78.1845 71.2001 78.4825 71.2771C78.7535 71.3731 79.0295 71.5021 79.2735 71.6691C81.0435 72.8251 82.3645 74.2801 83.7015 75.6831L84.6685 76.7571L85.1395 77.2971L85.3715 77.5661C85.4435 77.6511 85.4085 77.6291 85.4335 77.6671C85.4915 77.8261 85.5445 78.0451 85.7725 78.3711C85.8575 78.4881 85.9155 78.4101 85.9595 78.3821C86.0065 78.3401 86.0495 78.2811 86.0915 78.2121C86.1805 78.0551 86.2335 77.9411 86.3305 77.6821C86.7285 76.5671 87.1175 75.4211 87.5805 74.3131C88.5855 71.8681 89.8195 69.4981 91.2115 67.2241C92.0675 65.8231 93.0045 64.4681 94.0075 63.1621C95.5155 61.1721 97.3085 59.3851 99.2175 57.7851C100.699 56.5461 102.197 55.3061 103.953 54.4241C104.338 54.2331 104.707 54.0231 105.115 53.8671C105.862 53.5561 106.419 53.5331 106.811 53.5591C107.209 53.5971 107.474 53.7611 107.717 54.0221C107.827 54.1421 107.958 54.2531 108.034 54.3761C108.289 54.7941 107.796 55.3361 106.918 55.9611C104.268 57.6751 101.818 59.5631 99.6485 61.9261C98.0755 63.6931 96.4985 65.5421 95.1985 67.6321L95.1215 67.5891Z" fill="#0F7B6C"/>
<path fill-rule="evenodd" clip-rule="evenodd" d="M49.9809 42.0022C52.7799 40.6292 55.4889 39.0232 58.0719 37.2162C59.0109 36.5522 59.8879 35.8072 60.8019 35.1072C64.0379 32.6552 67.1189 29.9522 69.9459 26.9942C71.1919 25.6752 72.3789 24.2852 73.4669 22.8532C74.1629 21.9312 74.8279 20.9822 75.4779 20.0352C76.0959 19.0662 76.9019 18.2212 77.5789 17.3042C78.0109 16.7502 78.3369 16.9812 78.4709 17.7672C78.5389 18.1622 78.5479 18.6862 78.4799 19.2892C78.3829 19.8712 78.3029 20.5892 77.9089 21.1672C76.6059 23.2662 75.1629 25.2482 73.5909 27.1282C72.0199 29.0082 70.2479 30.7172 68.3909 32.3302C66.1639 34.2472 63.9969 36.3992 61.6219 38.2462C59.0179 40.2782 56.2529 42.1102 53.3749 43.7362C51.5959 44.7242 49.7849 45.6572 47.9219 46.4752C45.1089 47.7372 42.1669 48.7242 39.2239 49.5662C36.9419 50.2432 34.6739 50.8932 32.3209 51.3032C31.8019 51.3802 31.2959 51.4872 30.7689 51.5462C29.7929 51.6772 29.1369 51.5912 28.6809 51.4432C28.2229 51.2842 27.9599 51.0112 27.7519 50.5802C27.6559 50.3832 27.5329 50.1902 27.4789 49.9942C27.3009 49.3362 28.0639 48.7432 29.3849 48.4542C30.3699 48.2752 31.3529 48.0092 32.3449 47.8342C33.3279 47.5662 34.3269 47.3942 35.3199 47.1432C37.3149 46.6982 39.3109 46.1362 41.2979 45.5122C44.2399 44.5542 47.1499 43.3782 49.9389 41.9342L49.9809 42.0022Z" fill="#F9F9F7"/>
<path fill-rule="evenodd" clip-rule="evenodd" d="M87.1835 128.927C74.6315 125.234 59.7765 119.806 54.0805 111.363C48.7865 103.516 44.9385 94.5465 41.0345 85.9175C36.6425 76.2135 32.1275 66.4225 28.7205 56.3425L26.9995 59.7835C30.4075 69.8645 34.9215 79.6545 39.3135 89.3585C43.2185 97.9885 47.0645 106.958 52.3595 114.805C57.2785 122.095 79.3035 131.419 83.4485 130.256L87.1835 128.927Z" fill="#F9F9F7"/>
<path fill-rule="evenodd" clip-rule="evenodd" d="M104.769 37.4475C102.964 36.9905 101.207 36.3565 99.4775 35.6835C98.8475 35.4355 98.2165 35.1845 97.5985 34.9085C95.4495 33.8605 93.3885 32.6405 91.4955 31.1985C91.0595 30.9035 90.6685 30.5415 90.2475 30.2245C89.8385 29.8925 89.4015 29.5955 89.0215 29.2345C88.5225 28.7855 87.9985 28.3595 87.5115 27.8935C87.0495 27.4025 86.6045 26.8935 86.2065 26.3505C85.7105 25.6835 87.4085 25.6125 88.4505 26.6145C90.3685 28.3845 92.4345 29.9465 94.6075 31.4645C95.2625 31.9125 95.9615 32.3235 96.7065 32.6555L97.8135 33.1765L98.9465 33.6395C100.588 34.3515 102.3 34.9025 104.027 35.4055C105.102 35.6675 106.174 35.9605 107.269 36.1425C108.918 36.4665 110.6 36.6885 112.269 36.7855C113.57 36.8315 114.846 36.7575 116.126 36.6785L116.967 36.6195C118.019 36.5665 118.356 36.6865 118.608 37.1755C118.665 37.2855 118.74 37.3965 118.776 37.5085C118.898 37.8855 118.476 38.2165 117.683 38.3645C116.51 38.5955 115.289 38.6935 114.049 38.7325C112.809 38.7575 111.554 38.6465 110.3 38.5225C108.44 38.2875 106.583 37.9595 104.761 37.4925L104.769 37.4475Z" fill="#F9F9F7"/>
<path fill-rule="evenodd" clip-rule="evenodd" d="M132.627 37.2387C132.578 37.5507 132.479 37.8627 132.419 38.1707C132.396 38.2827 132.434 38.3927 132.403 38.5057C132.296 38.9017 132.159 39.2957 132.068 39.6857C132.028 39.8587 132.045 40.0317 132.074 40.2037C132.111 40.4227 132.242 40.6437 132.03 40.8637C131.9 41.0007 130.064 40.8267 130.023 40.5797C129.963 40.1397 130.013 39.7027 130.267 39.2547C130.42 38.9867 130.314 38.7127 130.338 38.4417C130.375 38.1467 130.412 37.8427 130.449 37.5437C130.477 37.3597 130.51 37.1737 130.523 36.9897C130.544 36.7107 130.592 36.4267 130.542 36.1547C130.497 35.9437 130.361 35.7447 130.27 35.5417C130.25 35.4967 130.209 35.4557 130.217 35.4077C130.212 35.3217 130.272 35.2587 130.409 35.2037C130.529 35.1517 130.679 35.1127 130.883 35.0717L131.149 35.0187C131.423 34.9727 131.726 35.0137 132.011 35.1177C132.537 35.4617 132.671 35.8767 132.697 36.2957C132.724 36.6077 132.691 36.9237 132.681 37.2357L132.627 37.2387Z" fill="#F9F9F7"/>
<path fill-rule="evenodd" clip-rule="evenodd" d="M139.926 42.7892C139.371 42.9942 138.814 43.1982 138.262 43.4012C138.058 43.4742 137.879 43.5982 137.671 43.6642C136.935 43.8932 136.187 44.1252 135.456 44.3522C135.133 44.4602 134.822 44.6022 134.521 44.7522C134.133 44.9432 133.758 45.1872 133.289 45.1812C133.005 45.1852 132.838 43.7782 133.236 43.5412C133.969 43.1402 134.715 42.7752 135.566 42.5622C136.078 42.4402 136.503 42.0922 136.973 41.8512C137.488 41.5812 138.033 41.3572 138.57 41.1102C138.902 40.9592 139.235 40.8082 139.564 40.6582C140.062 40.4212 140.576 40.2042 141.056 39.9322C141.435 39.7342 141.729 39.3772 142.107 39.1692C142.187 39.1192 142.266 39.0692 142.358 39.0392C142.699 38.9352 142.865 39.0302 143.116 39.4172C143.174 39.5052 143.235 39.5892 143.284 39.6782C143.45 39.9762 143.443 40.3072 143.294 40.5692C142.881 41.4062 142.229 41.7622 141.548 42.1322C141.033 42.3822 140.488 42.5942 139.952 42.8352L139.926 42.7892Z" fill="#F9F9F7"/>
</svg>
